<?xml version="1.0" encoding="UTF-8"?><!DOCTYPE svg PUBLIC "-//W3C//DTD SVG 1.1//EN" "http://www.w3.org/Graphics/SVG/1.1/DTD/svg11.dtd"><svg xmlns="http://www.w3.org/2000/svg" xmlns:xlink="http://www.w3.org/1999/xlink"><symbol id="community-radio__thumb" viewBox="0 0 1080 1080">
<style type="text/css">
	.st0{fill:#FFFFFF;}
</style>
<title>Radiologo</title>
<rect width="1080" height="1080"/>
<path id="_Path_" class="st0" d="M296.8,128.3L296.8,128.3c58.9-34.9,124.8-56.4,192.9-63c0.8-0.1,1.5-0.8,1.5-1.6l0,0
	c0-0.9-0.7-1.6-1.6-1.6c-0.1,0-0.1,0-0.2,0c-47.4,4.6-93.9,16.3-137.8,34.9c-19,8-37.4,17.3-55.2,27.7c-0.8,0.5-1,1.5-0.6,2.2
	c0,0,0.1,0.1,0.1,0.1L296.8,128.3z"/>
<path id="_Path_2" class="st0" d="M103.3,345.4L103.3,345.4c0.8,0.3,1.7-0.1,2-0.9c23.5-53.7,56.8-102.5,98.3-143.9
	c6.6-6.6,13.3-12.9,20.2-19c0.6-0.6,0.7-1.5,0.2-2.2l0,0c-0.5-0.7-1.6-0.9-2.3-0.4c0,0-0.1,0.1-0.1,0.1
	c-6.9,6.2-13.7,12.6-20.3,19.2c-41.8,41.7-75.4,90.8-99,144.9C102,344.1,102.4,345,103.3,345.4C103.3,345.4,103.3,345.4,103.3,345.4
	z"/>
<path id="_Path_3" class="st0" d="M205.4,434.3c0,0.2-0.1,0.3-0.1,0.5c1.2-0.1,2.3-0.2,3.5-0.3l0.1-0.5c3.1-10.3,6.7-20.5,10.8-30.5
	l12.4,5.1c0.2,0.1,0.4,0.1,0.6,0.1c0.9,0,1.6-0.8,1.6-1.7c0-0.6-0.4-1.2-1-1.5l-12.4-5.1l0.3-0.7c5.3-12.5,11.3-24.6,18-36.4
	l23.3,13.5c0.2,0.1,0.5,0.2,0.8,0.2c0.9,0,1.6-0.8,1.6-1.7c0-0.6-0.3-1.1-0.8-1.4l-11.7-6.8l0,0l-11.6-6.8l0,0
	c7-11.9,14.6-23.4,23-34.4l10.6,8.1c0.8,0.5,1.8,0.3,2.3-0.5c0.4-0.7,0.3-1.6-0.3-2.1l-10.6-8.2c8.5-10.9,17.6-21.2,27.3-31l0,0
	l9.4,9.4c0.6,0.6,1.7,0.6,2.3,0c0.6-0.6,0.6-1.7,0-2.3l-9.4-9.4l0,0c9.8-9.7,20.2-18.8,31-27.3l8.1,10.6c0.5,0.8,1.5,1,2.3,0.5
	c0.8-0.5,1-1.5,0.5-2.3c-0.1-0.1-0.1-0.2-0.2-0.2l-8.1-10.6c11-8.4,22.4-16,34.4-23l6.7,11.6l6.8,11.7c0.3,0.5,0.8,0.8,1.4,0.8
	c0.3,0,0.6-0.1,0.8-0.2c0.8-0.5,1.1-1.5,0.6-2.2l-13.5-23.4c11.8-6.7,23.9-12.7,36.4-18l0.7-0.3l5.1,12.4c0.3,0.6,0.9,1,1.5,1
	c0.2,0,0.4,0,0.6-0.1c0.8-0.3,1.2-1.3,0.9-2.1c0,0,0,0,0,0l-5.1-12.4c12.8-5.2,25.8-9.7,39.1-13.3l3.5,13c0.2,0.9,1.1,1.5,2,1.3
	c0.9-0.2,1.5-1.1,1.3-2c0-0.1,0-0.1-0.1-0.2l-3.5-13c13.3-3.5,26.9-6.2,40.6-8l1.8,13.3c0.1,0.8,0.8,1.4,1.6,1.4h0.2
	c0.9-0.1,1.5-0.9,1.4-1.8l-1.8-13.3c13.7-1.7,27.5-2.6,41.3-2.6v26.9c-0.1,0.9,0.6,1.7,1.5,1.8s1.7-0.6,1.8-1.5c0-0.1,0-0.2,0-0.3
	v-26.9c13.8,0.1,27.6,0.9,41.2,2.6l-1.8,13.3c-0.1,0.9,0.5,1.7,1.4,1.8c0,0,0,0,0,0h0.2c0.8,0,1.5-0.6,1.6-1.4l1.8-13.2
	c13.7,1.8,27.2,4.5,40.6,8l-3.5,13c-0.2,0.9,0.3,1.8,1.2,2c0.9,0.2,1.8-0.3,2-1.2l3.5-13c13.3,3.6,26.4,8.1,39.2,13.3l-5.1,12.4
	c-0.3,0.8,0.1,1.8,0.9,2.1c0.2,0.1,0.4,0.1,0.6,0.1c0.7,0,1.3-0.4,1.5-1l5.1-12.4l0.7,0.3c12.5,5.3,24.6,11.3,36.4,18l-6.7,11.6
	l-6.8,11.6c-0.5,0.8-0.2,1.8,0.6,2.2c0.2,0.1,0.5,0.2,0.8,0.2c0.6,0,1.1-0.3,1.4-0.8l6.8-11.6l6.7-11.6c11.9,7,23.4,14.6,34.3,23
	l-8.1,10.6c-0.6,0.7-0.4,1.7,0.3,2.3c0,0,0,0,0,0c0.3,0.2,0.6,0.3,1,0.3c0.5,0,1-0.2,1.3-0.6l8.1-10.6c10.9,8.5,21.3,17.6,31.1,27.3
	l-9.4,9.4c-0.6,0.6-0.6,1.7,0,2.3c0.6,0.6,1.7,0.6,2.3,0l0,0l9.4-9.4c9.7,9.8,18.8,20.1,27.3,31l-10.6,8.1c-0.7,0.5-0.9,1.6-0.4,2.3
	c0.3,0.5,0.8,0.7,1.4,0.7c0.4,0,0.7-0.1,1-0.3l10.6-8.1c8.4,11,16,22.4,23,34.4l-11.6,6.7l-11.7,6.8c-0.8,0.5-1,1.5-0.5,2.3
	c0.5,0.7,1.4,0.9,2.1,0.6l11.7-6.8l11.6-6.7c6.7,11.8,12.7,23.9,18,36.4l0.3,0.7l-12.4,5.1c-0.8,0.4-1.2,1.3-0.8,2.2
	c0.3,0.6,0.8,1,1.5,1c0.2,0,0.4,0,0.6-0.1l12.4-5.1c4.1,10,7.7,20.2,10.8,30.5c0,0.2,0.1,0.3,0.2,0.5c1.2,0.1,2.3,0.2,3.5,0.3
	c0-0.2-0.1-0.4-0.2-0.5c-54.3-182.4-246.2-286.1-428.6-231.8C325.7,235.7,238.6,322.9,205.4,434.3L205.4,434.3z"/>
<path id="_Path_4" class="st0" d="M775.2,938c-0.5-0.7-1.4-0.9-2.2-0.5c-17.7,10.4-36,19.5-54.8,27.5
	c-43.6,18.5-89.7,30.2-136.8,34.7c-0.8,0.1-1.5,0.8-1.5,1.6l0,0c0,0.9,0.7,1.6,1.6,1.6c0.1,0,0.1,0,0.2,0c68.1-6.6,134-28,193-62.6
	c0.8-0.5,1-1.5,0.6-2.2C775.3,938.1,775.3,938,775.2,938L775.2,938z"/>
<path id="_Path_5" class="st0" d="M866.3,544.9c-0.7,1.1-2.2,3.8-0.4,3.7s1.9-2,4.7-1.3s1.4,1.1,3,1.9s3.7,1.4,3.1-0.6
	s-0.5-3.5-1.7-3.5s-2.2-0.1-1.5-1.7s0.2-2.1-1.7-1.1c-0.2,0.1-0.5,0.3-0.7,0.4c0,0.1,0,0.2-0.1,0.3C870,544.9,867,543.8,866.3,544.9
	z"/>
<path id="_Path_6" class="st0" d="M871,542.7C871,542.4,870.4,542.9,871,542.7z"/>
<path id="_Path_7" class="st0" d="M868.3,551.5c-3.3-0.2-5.3,1-4.9-1s-3.2,0.1-2.3,2.2s2.8,1.4,4.5,0.5S870,551.6,868.3,551.5z"/>
<path id="_Path_8" class="st0" d="M875.8,534c-2.7,1.1-2.4,1.3-2.7,3s-2.4,0.9-1,2.6s0.3,1,2.5,1.2s3.1,2.7,3.5,1s-1.4-1.6-1.6-3.6
	S877.4,533.4,875.8,534z"/>
<path id="_Path_9" class="st0" d="M902.8,559.3c-1.2,1.3-1.5,2.7-0.7,2.7s2.1,0.4,2.1-0.7S903.6,558.5,902.8,559.3z"/>
<path id="_Path_10" class="st0" d="M823.2,538.9c-1.5-0.1-4.5-3.1-4.6-4.8s-0.8-4.4-1.6-4.6s-0.4-3.6-1.2-4
	c-1.7-0.7-3.6-0.9-5.4-0.6c-2.3,0.4-6.6,0.6-6.8-0.2s-1-3.5-2.5-3.8s-7-0.9-7.2,0.3s-0.1,1.8-1.3,1.5s-5.6-1.5-5.4-0.5
	s1.1,3.9-0.4,3.9s-1.8,0.1-1.9,1.9s-0.2,2.1-1.2,2.5s0,1.8-0.5,3.6s-0.7,2.9-0.2,4.6c0.7,1.7,2,3.1,3.6,4c2.8,1.7,4.8,2.6,6.7,1.1
	s3.6-3.3,4-1.5c0.1,1.3,1.3,2.3,2.6,2.1c0,0,0.1,0,0.1,0c1-0.2,1.1,1.4,1.1,2.1s0.2,3.5,1.2,3.6s1.8,5.1,0.7,5.8s-2.3,1.2-1.8,2.4
	s2.2,0.8,2.4,2.5s-1,3.5,0,4.9s1.6,1.5,2.2,3.9s2.2,3.2,2.9,3s1.1-2.8,1.6-2.7c1.2-0.1,2.3-0.5,3.1-1.4c1-1,3.5,0.3,3.8-1
	c0.2-2.2,0.2-4.4,0-6.6c0-0.6,2.3-1,2.9-2.8s1.2-7.2,1.3-8.8s4.8-4.1,5.4-5.8s2.4-3.6,1.8-4.5S824.7,539,823.2,538.9z"/>
<path id="_Path_11" class="st0" d="M884.3,545.2c-1.4,1.4-2.3,3-4,3.3s-6.5,2.5-1.9,1.7s5.9-1.4,6.3-0.5s0.7,2.6,3.3,2.2
	s4.6-0.8,5.2,0s4-0.4,1.5-2.2s-3.2-2.8-5.2-2.1s-4.4,0.4-4.3-1S886.1,543.5,884.3,545.2z"/>
<path id="_Path_12" class="st0" d="M896,564.1c-1.4-0.6-0.6-2.3-1.5-3.7s-2.5-1.4-3.4-2.5s-0.7-3.8-2-2.8s-2.1,3.2-3.9,2
	s-1.5-3.3-3-3s-0.8,2.7-2.8,3s-3-0.5-3.4,0.6c-0.5,1.3-1.8,2.2-3.2,2.4c-2.8,0.3-4.6,1.5-4.4,3.4s3,4.4,2.5,7.9s3.9,0.8,4.1,0.4
	s2.7-1.5,4.1-2s5.3,0.5,6,2s-2.2,3.6,0.7,4.1c2.3,0.5,4.3,1.9,5.6,3.9c0.8,1.4,2.3-3.2,0.8-4.8s2.8-1,3.2-2.4s-1-1.8,0.4-2.5
	S897.3,564.6,896,564.1z"/>
<path id="_Path_13" class="st0" d="M867.5,200.6c41.5,41.4,74.8,90.2,98.3,143.9c0.3,0.8,1.2,1.2,2,0.9l0,0c0.9-0.3,1.3-1.2,1.1-2.1
	c0-0.1,0-0.1-0.1-0.2c-23.6-54.1-57.2-103.2-99-144.9c-6.6-6.6-13.4-13-20.3-19.2c-0.7-0.6-1.7-0.5-2.3,0.1c0,0-0.1,0.1-0.1,0.1l0,0
	c-0.5,0.7-0.4,1.6,0.2,2.2C854.2,187.7,860.9,194,867.5,200.6z"/>
<path id="_Path_14" class="st0" d="M995.3,635.2L995.3,635.2c0.9,0.3,1.8-0.2,2.1-1.1c0-0.1,0-0.1,0-0.2
	c14.5-66.9,14.5-136.1,0-202.9c-0.2-0.9-1.1-1.4-2-1.3c-0.1,0-0.1,0-0.2,0l0,0c-0.8,0.3-1.3,1.1-1.1,1.9
	c14.4,66.4,14.4,135.1,0,201.5C994,634.1,994.5,634.9,995.3,635.2z"/>
<path id="_Path_15" class="st0" d="M826.3,555.8H826c-1.6,0.9-1.4,1.9-2.1,2.2s-1.8,0.2-1.4,2.1s0.3,3.8,0.5,4.6s2.1,1.5,2.1,0
	s-0.3-2.4,0.5-2.8s1.8-0.3,1.6-2.2S827.5,555.9,826.3,555.8z"/>
<path id="_Path_16" class="st0" d="M911,571.6c-0.8,0.9-1.7-1-1.7,1.9s-1.9,3.4-2.8,4.7s-1.4,1.5-2.1,3.7s3.2-0.1,3.4,0
	s2.7-2,3.8-2.7s0.7,0.3,1.1-3.9S911.4,571.1,911,571.6z"/>
<path id="_Path_17" class="st0" d="M787.5,505.5c1,0,2.5-0.3,2.7,0.5s1.6,1,1.5,1.9s1.4,0.9,1.4-0.4s0.7-1.3,1.2-1.9
	s1.5-1.8,0.3-1.9s-2-0.1-1.4-1.2s1.1-1.7,0.6-2.9s-0.7-1.7-1.3-1.8c-1.3,0-2.2-0.4-2.1,1.3s1.5,3.4,0,3.2s-2.5-0.9-2.9,0.4
	S786.5,505.5,787.5,505.5z"/>
<path id="_Path_18" class="st0" d="M858.8,458.2c1.9,1.7,4.7,3.5,4.7,2s1.2-2.2-0.3-3.9s-1.4-2.5-2.5-2.1s-1.4-0.4-2.2-0.4
	c-2.3-0.1-2.7,1.1-2.8,2.5S856.9,456.4,858.8,458.2z"/>
<path id="_Path_19" class="st0" d="M967.8,719.7L967.8,719.7c-0.8-0.3-1.7,0.1-2,0.9c-23.5,53.7-56.8,102.5-98.3,143.9
	c-6.6,6.6-13.3,12.9-20.2,19.1c-0.6,0.6-0.6,1.7,0,2.3c0.6,0.6,1.5,0.6,2.1,0.1c6.9-6.2,13.7-12.6,20.3-19.2
	c41.8-41.7,75.4-90.8,99-144.9c0.4-0.8,0-1.8-0.9-2.2C967.9,719.7,967.9,719.7,967.8,719.7z"/>
<path id="_Compound_Path_" class="st0" d="M543.1,785.6c1.7,0,3.1-1.4,3.1-3.2v-3.7c0-1.7-1.4-3.1-3.1-3.1c-1.7,0-3.1,1.4-3.1,3.1
	c0,0,0,0,0,0v3.7C539.9,784.2,541.3,785.6,543.1,785.6C543.1,785.6,543.1,785.6,543.1,785.6z M544.2,782.5c0,0.6-0.5,1.2-1.1,1.2
	c0,0,0,0,0,0c-0.6,0-1.1-0.5-1.2-1.1l2.3-2.3L544.2,782.5z M541.9,778.7c0-0.6,0.5-1.2,1.1-1.2c0,0,0,0,0,0c0.6,0,1.1,0.5,1.2,1.1
	l-2.3,2.3V778.7z"/>
<path id="_Path_20" class="st0" d="M543,799.2c1.7,0,3.1-1.4,3.1-3.2v-0.3c0-1.7-1.3-3.1-3-3.2c0,0,0,0,0,0c-0.3,0-0.6,0-0.8,0.1
	l0.3-1.4h2.4c0.3,0,0.5-0.2,0.5-0.5v-0.8c0-0.3-0.2-0.5-0.5-0.5h-3.6c-0.3,0-0.5,0.2-0.5,0.4l-0.8,3.9c0,0.2,0,0.4,0.2,0.6l1.1,0.8
	c0.2,0.2,0.6,0.1,0.8-0.1c0.2-0.3,0.5-0.4,0.9-0.4c0.6,0,1.2,0.5,1.2,1.2c0,0,0,0,0,0v0.4c0,0.6-0.5,1.2-1.1,1.2c0,0,0,0,0,0
	c-0.6,0-1.1-0.4-1.1-1c0-0.3-0.3-0.5-0.5-0.5h-0.9c-0.3,0-0.6,0.2-0.6,0.5c0,0,0,0,0,0.1C540.1,798,541.4,799.2,543,799.2z"/>
<path id="_Path_21" class="st0" d="M529.6,785.5h5.2c0.3,0,0.5-0.2,0.5-0.5v-0.8c0-0.3-0.3-0.5-0.5-0.5H532l2.1-2.1
	c0.8-0.7,1.3-1.7,1.3-2.7c0-1.7-1.4-3.1-3.1-3.1c-1.7,0-3.1,1.4-3.1,3.1c0,0,0,0,0,0c0,0.7,0.3,1.4,0.8,2c0.1,0.1,0.2,0.2,0.4,0.2
	c0.2,0,0.3-0.1,0.4-0.2l0.6-0.6c0.2-0.2,0.2-0.5,0-0.7c-0.4-0.5-0.3-1.2,0.2-1.6s1.2-0.3,1.6,0.2c0.2,0.2,0.3,0.5,0.3,0.8
	c0,0.4-0.2,0.7-0.8,1.3l-3.3,3.5c-0.1,0.1-0.2,0.2-0.2,0.4v1C529.1,785.2,529.3,785.5,529.6,785.5
	C529.6,785.5,529.6,785.5,529.6,785.5z"/>
<path id="_Path_22" class="st0" d="M529.6,799.1h5.7c0.3,0,0.6-0.2,0.6-0.5c0,0,0,0,0,0v-0.8c0-0.3-0.2-0.5-0.5-0.5h-1.8v-7.3
	c0-0.3-0.2-0.5-0.5-0.5h-1c-0.1,0-0.3,0.1-0.4,0.2l-2,2c-0.2,0.2-0.2,0.5,0,0.8l0.6,0.6c0.1,0.1,0.2,0.2,0.4,0.2l0,0
	c0.1,0,0.3-0.1,0.4-0.2l0.6-0.6v4.9h-1.8c-0.3,0-0.5,0.2-0.5,0.5v0.9C529.1,798.8,529.3,799,529.6,799.1z"/>
<path id="_Path_23" class="st0" d="M581.5,65.3c67.6,6.6,133,27.8,191.6,62.2c0.7,0.4,1.7,0.2,2.2-0.4l0,0c0.5-0.7,0.4-1.8-0.4-2.3
	c0,0-0.1-0.1-0.1-0.1c-59-34.7-124.8-56.1-193-62.7c-0.9-0.1-1.7,0.6-1.8,1.5c0,0.1,0,0.1,0,0.2l0,0C580,64.5,580.6,65.2,581.5,65.3
	z"/>
<path id="_Compound_Path_2" class="st0" d="M948.5,532.5c-0.1-46.5-34.7-85.7-80.8-91.4c-1.2-0.1-2.3-0.3-3.5-0.4
	c-2.6-0.2-5.2-0.3-7.8-0.3c-50.9,0-92.1,41.3-92.1,92.2c0,50.9,41.2,92.1,92.1,92.1c2.6,0,5.2-0.1,7.8-0.3c1.2-0.1,2.4-0.2,3.5-0.4
	C913.8,618.2,948.4,579,948.5,532.5z M868.6,620.5l-1.9,0.2l0,0l-1.6,0.2c-1.5,0.2-3.1,0.3-4.7,0.3l0,0c-1.3,0.1-2.7,0.1-4,0.1
	c-49.1,0-88.8-39.8-88.8-88.8c0-49.1,39.8-88.8,88.8-88.8l0,0c1.3,0,2.7,0,4,0.1l0,0c1.6,0.1,3.2,0.2,4.7,0.3l1.7,0.2l1.9,0.2
	c48.6,6.8,82.5,51.7,75.7,100.3C938.9,584.1,908,615,868.6,620.5L868.6,620.5z"/>
<path id="_Compound_Path_3" class="st0" d="M870.2,450.8c-1.2-0.2-2.3-0.4-3.5-0.5c-45.4-5.7-86.8,26.5-92.5,72s26.5,86.8,72,92.5
	c6.8,0.9,13.7,0.9,20.6,0c1.2-0.1,2.4-0.3,3.5-0.5c45.1-7.6,75.5-50.4,67.9-95.6C932.2,483.9,905,456.7,870.2,450.8L870.2,450.8z
	 M871.1,610.8c-1.2,0.2-2.3,0.4-3.5,0.6c-43.5,6.1-83.8-24.2-89.9-67.7s24.2-83.8,67.7-89.9c7.4-1,14.9-1,22.2,0
	c1.2,0.2,2.4,0.4,3.5,0.6c43.2,8.1,71.7,49.7,63.6,92.9C928.6,579.5,903.3,604.8,871.1,610.8L871.1,610.8z"/>
<path id="_Path_24" class="st0" d="M920.7,486.8c-2.2-1-3.7-0.1-4.2-2.5s-0.9-1.7-3.2-1.6s0.6-1.5-2.7-1.7s-1.6,2.3-3.4,2
	s-0.7-3.1-3-2.8s-5.4,1.5-5.1,0s1.2-1.9-1.3-1.8s-4.1,2.1-4-0.3s3.6-3.8,0.3-4.1s-4.3,0.6-5.1,1.3s-0.3,2.7-2.2,2.9
	s-1.5,0.1-2.4-1.3s-1.1,0.7-2.2,1.1s-1,0.5-1.5-1.9s-1.4-0.9-2.3-1.8s0.8-2.1-0.8-2.1s-0.5,2.4-1.8,2.3s-2.1,0.7-2-0.9
	s-6.3-0.6-7.6-1.5s-2.1-1.5-0.4-1.7s2.8,0.5,2.6-2.2s1.4-4-1-3.9s-2.6,1.7-2.7,0s-4.3,0-4.3,0c0.2,0.9-0.3,1.9-1.3,2.2
	c-0.3,0.1-0.6,0.1-0.8,0c-2.5-0.2-2.7,1.2-4,2.3s-3.5-1.6-3.9,0.2s0.9,4.4-2,4.4s-4.2,3.3-4.7,0.8s-0.6-4.8-1.9-2.3s1.6,3.9-1.6,3.8
	s-1.6,3.4-0.3,3.6s3.1,2.4,1.2,2.6s-5.3,1-5.7-1.2s-3.1-3.8-3.6-4.7s-0.3-2.3,1.5-4.2s2.9-3.4,4-3.9s2.1-2.4,0.5-2.8
	s-4.3,0.7-4.7,3.1s-2.2,2.5-2.9,4.5s-1.6,4.1-0.4,5.2s6,3.8,1.7,3.2s-7.2-2.9-6.5,0.2s0.4,6.7-1,3.7s-2.1,1.6-3.8,3.3
	s-2.3,3.9-3.3,1.2s-1-2.6,1.1-3.9s4.8-3.1,2.4-4.5s-2.3,0.5-4.8-1.2s-1.6-4.2-4.1-2.6s-4.6,3.8-5.7,3.4s-2.7,1.1-2.6,2.5
	s-4.7,5-5.7,6.3s0.8,4.1,1,5.1s-0.1,2.6,1.5,3.4s0.9,1.8,2.4,2.6s3.4,2.2,2.6-0.6s-0.3-9.8,1.5-10.2s4.2-1.7,3.9-0.4
	s-3.9-0.9-1.3,2.8s1.8,0.5,3.1,0.6s3.8,2.7,1.3,3.7s-0.4,0.4-3.2,2.9s-4.2,3.1-4.4,4.4c-0.2,1.2-2.1,0-4.4,0s-4.3-0.7-4,1.2
	c0.2,1.6-0.7,3-2.2,3.5c-1.2,0.5,0.2,3.5-1.9,4.3s-4.8-0.3-5.5,1.2c-0.5,1.1-0.2,4,0,5.3s5.1,1.3,5.8,0s2.2,0.4,2-2.5
	s-2.4-2.8,0-3.3s4.3-0.7,5.1,0.2s2.8,3.4,1.6,3.5s-3.9,0.9-2,1s3.8,0.9,4.2,0s-2.5-3.4-0.9-4.3s4.6,0.3,4.4,2.5s0,3.8,1.2,3.4
	s6.8-2.7,7.2-0.3s-0.7,3.5,0.3,5.2s2.4,2.8,4.5,5c1.6,1.9,2.6,4.1,3.1,6.5c0.4,1.4,5.1,0.3,5.9-0.3c1.3-1.1,2.5-2.4,3.5-3.8
	c0.1-0.5-0.5-1-2-1.2s-4.3-1.5-4.4-3.5s0.1-3.5,1.6-2.5s4.3,2.7,3.8,4.2s1.2,3.1,2.2,1.6c1-1.4,2.8-2,4.4-1.5
	c1.8,0.3,2.2,2.6,2.9,3.6s-0.3,3.5,0.9,4.7s2.2,4,3.5,4.3c1,0.3,2.2,0.3,3.2,0c0.7-0.3-0.4-0.3-0.6-1.8s-0.4-3.8,0.6-4.2
	s-0.3-1.9,0.8-3.2s2.5-1.8,3.8-1s0.8,2.2,2.1,2.8s1.9,0.3,2.5,1.9s-0.4,2.1,0.2,3.2s0-1.1,1.7-1.7s2,1,1.5,2s-2.5,0.7-1.7,2.2
	s1.8,3.5,0.5,2.5s-4.4-4.7-3.8-2.7s2.4,2.6,3.2,4.2s2,3.5,2.1,0.6s-1.4-2.2,0-4.6s2.5-1.7,3.6-2.4s1.2-3.5,0.7-4.1s-0.9,2.2-2-1.1
	s-1-4.4,1-3.2s2.2,4.5,3.3,1.8s2.4-3.5,3.5-3.9s2.5-4.2,2.2-5s-0.5-4.1-1.5-4.1s-2.6-2-1.3-2.5s3.2-1,4,0.3s0.4,2.5,1.5,2.3
	s1-2.3,3.8-4.2c1.6-1.1,3-2.4,4.4-3.7c1.4-1.1,0.2-3.6,1.4-3.8s1.9-0.7,1.7,0.7s-2.2,2.1-0.7,3.5s4.2,1.9,4.7,0.8s-3.3-1.6-2.3-2.5
	s-1-3.1-0.2-5.2s0-2.9-1.5-2s-5.6,2.4-4.9,0.3s1.5-0.6,2.7-2.4s-2.6-2.7-0.1-3.3s3.6-0.3,4.4-2.2s2.3-0.6,2.8,0.6s2.5,2.1,3.2,1
	s0.5-3.9,2.2-3.9s3.4,0.6,2.7,1.5s-0.4,2-1.8,2.6s-2.5,2.4-2,3.7s-1,5.9,0.6,5c1.4-0.7,2.6-1.7,3.6-2.9c1-1.2-1.7-1.3-0.5-4
	s-0.3-2.5,1.9-3.2s4,2.9,4.4-0.8s2.3-2.4,3.6-3.8s-0.7-3.2,0.7-3.8s4.6,0,6,0S922.9,487.8,920.7,486.8z"/>
<path id="_Path_25" class="st0" d="M253.2,497.4c2.6-1.3,3,2,4.7,0.2c1.7-1.8,3.6-2.6,2-4s-2.1-1.1-3.6-1.8
	C253.1,494.2,250.5,498.7,253.2,497.4z"/>
<path id="_Path_26" class="st0" d="M203.6,864.5c-41.5-41.4-74.8-90.2-98.3-143.9c-0.3-0.8-1.2-1.2-2-0.9l0,0
	c-0.9,0.3-1.3,1.2-1.1,2.1c0,0.1,0,0.1,0.1,0.2c23.6,54.1,57.2,103.2,99,144.9c6.6,6.6,13.4,13,20.3,19.2c0.7,0.6,1.7,0.5,2.3-0.1
	c0,0,0.1-0.1,0.1-0.1l0,0c0.5-0.7,0.4-1.6-0.3-2.2C216.9,877.4,210.2,871,203.6,864.5z"/>
<path id="_Path_27" class="st0" d="M196.8,465.7c6.5-0.8,8.7-0.9,7.1,1s-2.9,2.8-3,3.8s1.7,4.3,4.3,0.5s4.1-3.7,3.3-1s3.9,8.3,4,4
	s-2.8-8.3,0-9.4s2.6-1.5,4.6-4.3s5.1-5.3,1.1-5.3s-7.5-1.8-6.1,1s-0.8,3.4-1.4,1.9s-1-1.9-4-1.9s-4,0.5-4,2.9s0.1,3.6-2.7,2.9
	S190.3,466.5,196.8,465.7z"/>
<path id="_Path_28" class="st0" d="M186.1,472.2c-0.8,2.3,3.2,0.3,4.9,3.5s2.5-1.6,5.1-2.6s-2.8-3.1-5.5-3.4s-0.4-0.9,0.2-2.6
	s1.4-4.5-0.3-3.6s-2.3,4.6-3.4,4s-3.5,1.1-4,3.2C182.9,472.2,186.9,469.8,186.1,472.2z"/>
<path id="_Path_29" class="st0" d="M75.8,635.2L75.8,635.2c0.8-0.3,1.3-1.1,1.1-1.9c-14.4-66.4-14.4-135.1,0-201.5
	c0.2-0.8-0.3-1.6-1.1-1.9l0,0c-0.9-0.3-1.8,0.2-2.1,1.1c0,0.1,0,0.1,0,0.2c-14.5,66.9-14.5,136.1,0,202.9c0.2,0.9,1.1,1.4,2,1.2
	C75.7,635.2,75.7,635.2,75.8,635.2z"/>
<path id="_Path_30" class="st0" d="M219,573.1c0.2,3.3,0.1,6.6-0.4,9.8c-0.6,4.9-2.6,2.2-0.7,4.7c0.3,0.4,0.6,0.8,1,1.2
	c-0.1,0-0.1,0.2-0.1,0.6c0.1,1.6-2.1,1.9-2.1,4.2c-0.1,1.8,0.8,3.6,2.3,4.6c1.2,0.9,0,4,2.9,2.4s-0.7-6.6,0.9-8.3s2.5,0.1,2.9-2.8
	c0.5-2.9,2.3-5.4,4.9-6.8c1.9-1,5.3-3.4,4.9-6.2s3.4-2.3,5.6-3.4c2.6-1.2,0.4-6.2,3-6.5s1.9-4.2,2.2-5.7s-2.9-4.7-6.2-2.3
	s-2.4-3.4-4.4-5s-6.4-3.7-8.8-5.1s-3.8-1.8-7.5-2s-2,2.9-6.8,3.5s-1.1-1.5-2.1-3.3s-1.4-5.4-3.4-6.1s-2.6,1.5-4.4,2.3s-1.4-7-1-8.9
	s3.8,0,6.2,0.5s0.1-1.1,1.9-2.5s0.6,1,2.4,3.8s0.7,1.2,2.9,0.6s-0.4-1.8-0.4-5s1.7-2.9,2.3-4.4s4.9-3.5,5.1-5.6s3.8-5.6,6.1-5.2
	s4.5,6,6.3,3.5s-5.5-8.4-6.4-9.9s-1-3-3.1-5.7s-1.8,0.8-6.6-1s-2.7-4.7-3.7-3.3s-0.7,2.6,0.2,4s2.1,0.6,2.7,3s-1.6,1.3-1.8,3.6
	s-2.2,8.3-2.3,3.6s-7.3-7.6-9-10s2-7,4.5-9.5s2.6-1.6,3.6-2.7s-0.6-3.7,0.4-5.9s1.9-0.6,2.1,1s0.9,2.3,2.1,0.1s2.1,0.8,2.1,3.1
	s-1.1,2.5-3.9,3.7s0.5,2.1,3.4,1.6s3,1,3.1,4.3s6-5.1,3.9-7s-0.1-6.8-3.5-7.2s-4.2-3.3-7.1-4.7s-2.1-5.1-3.4-2.5s-1.6,1.1-4-1
	s-0.4,4.2,1,5s1.9,2.9,1,5.5s-2.8,0.8-2.6-1.3s0.6-1.5-2.3-3.6s-2.2-1-2-4s-2.6,0.1-4.6,0.3s-0.2,1.5,1.7,2.4s2-0.6,2.7,1.3
	s-0.7,2.5-1.9,2.9s0.2,2.7,0.3,4.3s-3,1-3.5-0.7s1.3-5.3,0.2-5.1s-1.4-1.9-1.5-4.5s0.3-2.4-1.2-2s-0.2,0.9-1.5,2s-3.2,0.2-4.4,0
	s-0.1-1.9-0.2-4.1s-5.5-0.7-7.2,2s-1.2,2.2,1.4,3s0,0,0.2,2s1.3,0.7,2.3,0.8c1.4-0.1,2.7,0.6,3.6,1.8c1.4,1.7,0.2,0.8,2.1,2.4
	s1.5-0.2,2.7-1.7s1.1,0.6,0.7,2c-0.3,0.7-0.5,1.5-0.6,2.2c-0.1,1.2-2.3,0.4-4.3-0.3s-2.4-2.3-3.7-3.6s-7.6-0.4-10.2,1.4
	s-1.4-1.5-3.4-1.4c-2.4-0.1-4.8-0.8-6.9-2c-1.8-1-7.7-2.3-8,0s-2.3,1.4-3,1.6s0.6,3.9,0.3,5.3s-2.7,1-2.9,1.9s0.2,0.5,3.5,2.2
	s0.2,3.7-0.3,4.5s-2,2.6,0.3,2.4s1.2,2,2.1,2.4s1.2,0.3,0.6,1.7s-5.2,5.3-4.3,6.6c1,1.4,4-3.2,4.2-4.4s3.4-1.9,4.9-3.1
	s2-2.3,5.1-2.5s4.9-0.1,7.4,2.1c2.5,2.2,2.5,3.8,4.9,7.5s3.1,1.4,4.7,3.3s-2.7,4.6-2.9,6.4s1,3.3,1.7,6.9s5.8,2.3,8.6,3.6
	s-0.1,6.5,1.3,7.5s7.5,5.3,9.9,5.1s4.4,1.1,4.4,2.9s0.5,2.4,2.3,2.5s3,0.6,3.9,2.1s-1.9,2.5-2.1,5.3s1,3.4,5.3,7.4
	S218.8,571,219,573.1z"/>
<path id="_Compound_Path_4" class="st0" d="M214.7,624.7c50.9,0,92.1-41.2,92.1-92.1s-41.2-92.1-92.1-92.1c-2.6,0-5.2,0.1-7.8,0.3
	c-1.2,0.1-2.4,0.2-3.5,0.4c-50.5,6.3-86.3,52.3-80.1,102.8c5.2,41.9,38.2,74.8,80.1,80.1c1.2,0.1,2.3,0.3,3.5,0.4
	C209.5,624.6,212.1,624.7,214.7,624.7z M204.4,620.8L204.4,620.8l-1.9-0.2c-48.6-6.8-82.5-51.7-75.7-100.3
	c5.5-39.3,36.4-70.3,75.7-75.7l1.9-0.2l1.6-0.2c1.6-0.2,3.1-0.3,4.7-0.3l0,0c1.3-0.1,2.7-0.1,4-0.1c49.1,0,88.8,39.8,88.8,88.8
	c0,49.1-39.8,88.8-88.8,88.8c-1.4,0-2.7,0-4-0.1l0,0c-1.6-0.1-3.1-0.2-4.7-0.3L204.4,620.8z"/>
<path id="_Compound_Path_5" class="st0" d="M517.6,766c-0.8,0-1.4,0.6-1.4,1.4v40c0,0.8,0.6,1.4,1.4,1.4h40c0.8,0,1.4-0.6,1.4-1.4
	v-40c0-0.8-0.6-1.4-1.4-1.4H517.6z M556.3,768.8V806H519v-37.3H556.3z"/>
<path id="_Path_31" class="st0" d="M865.7,630.9c-54.4,182.3-246.3,286-428.7,231.6c-111.3-33.2-198.4-120.3-231.6-231.6
	c1.2,0.1,2.3,0.2,3.5,0.3c3.1,10.2,6.7,20.4,10.8,30.3l12.4-5.1c0.9-0.2,1.8,0.3,2,1.2c0.2,0.7-0.1,1.4-0.7,1.8l-12.4,5.1l0.3,0.7
	c5.3,12.5,11.3,24.6,18,36.4l11.6-6.7l11.7-6.8c0.8-0.5,1.8-0.3,2.3,0.5c0.5,0.8,0.3,1.8-0.5,2.3c-0.1,0-0.1,0.1-0.2,0.1l-11.7,6.8
	l0,0l-11.7,6.8l0,0c7,11.9,14.6,23.4,23,34.3l10.6-8.2c0.8-0.5,1.8-0.3,2.3,0.5c0.4,0.7,0.3,1.6-0.3,2.1l-10.6,8.2
	c8.5,10.9,17.6,21.2,27.3,31l9.4-9.4c0.7-0.6,1.7-0.6,2.3,0.1c0.6,0.6,0.6,1.6,0,2.2l-9.4,9.4c9.8,9.7,20.2,18.8,31,27.3l8.1-10.6
	c0.6-0.7,1.6-0.9,2.3-0.3s0.9,1.6,0.3,2.3l0,0l-8.1,10.6c11,8.4,22.4,16,34.4,23l6.7-11.6c0.4-0.8,1.4-1.1,2.2-0.7s1.1,1.4,0.7,2.2
	c0,0.1-0.1,0.1-0.1,0.2l-6.7,11.6c11.8,6.7,23.9,12.7,36.4,18l0.7,0.3l5.1-12.4c0.2-0.9,1.1-1.4,2-1.1s1.4,1.1,1.1,2
	c0,0.1-0.1,0.3-0.2,0.4l-5.1,12.4c12.8,5.2,25.8,9.7,39.1,13.3l3.5-13c0.3-0.9,1.2-1.3,2.1-1c0.8,0.3,1.2,1.1,1.1,1.9l-3.5,13
	c13.3,3.5,26.9,6.2,40.6,8l1.8-13.3c0-0.9,0.8-1.6,1.7-1.6s1.6,0.8,1.6,1.7c0,0.1,0,0.2,0,0.3l-1.8,13.3c13.7,1.7,27.5,2.6,41.3,2.7
	v-26.8c-0.1-0.9,0.6-1.7,1.5-1.8c0.9-0.1,1.7,0.6,1.8,1.5c0,0.1,0,0.2,0,0.3v26.9c13.8-0.1,27.6-0.9,41.2-2.7l-1.8-13.3
	c-0.2-0.9,0.4-1.8,1.3-2c0.9-0.2,1.8,0.4,2,1.3c0,0.1,0,0.2,0,0.3l1.8,13.3c13.7-1.8,27.2-4.5,40.6-8l-3.5-13
	c-0.2-0.9,0.3-1.8,1.2-2c0.9-0.2,1.8,0.3,2,1.2l3.5,13c13.3-3.6,26.4-8.1,39.2-13.3l-5.1-12.4c-0.2-0.9,0.3-1.8,1.2-2
	c0.7-0.2,1.4,0.1,1.8,0.7l5.1,12.4l0.7-0.3c12.5-5.3,24.6-11.3,36.4-18l-6.7-11.6l0,0l-6.7-11.7c-0.5-0.8-0.3-1.8,0.5-2.3
	c0.8-0.5,1.8-0.3,2.3,0.5c0,0.1,0.1,0.1,0.1,0.2l6.8,11.7l6.7,11.6c11.9-7,23.4-14.6,34.4-23l-8.1-10.6c-0.6-0.7-0.4-1.8,0.3-2.3
	s1.8-0.4,2.3,0.3l0,0l8.1,10.6c10.9-8.5,21.3-17.6,31.1-27.3l-9.4-9.4c-0.6-0.6-0.6-1.7,0-2.3s1.7-0.6,2.3,0l9.4,9.4
	c9.7-9.8,18.8-20.1,27.3-31l-10.6-8.1c-0.7-0.6-0.9-1.6-0.3-2.3s1.6-0.9,2.3-0.3l0,0l10.6,8.2c8.4-11,16-22.4,23-34.4l-11.6-6.7
	l-11.7-6.8c-0.8-0.5-1-1.5-0.5-2.3c0.5-0.7,1.4-0.9,2.1-0.6l11.7,6.8l0,0l11.6,6.7c6.7-11.8,12.7-23.9,18-36.4l0.3-0.7l-12.4-5.1
	c-0.8-0.5-1-1.5-0.5-2.3c0.4-0.6,1.1-0.9,1.8-0.7l12.4,5.1c4.1-10,7.7-20.1,10.8-30.4C863.4,631.1,864.5,631,865.7,630.9z"/>
<path id="_Path_32" class="st0" d="M489.7,999.8c-47.1-4.5-93.3-16.2-136.9-34.7c-18.8-8-37.1-17.2-54.8-27.5
	c-0.7-0.4-1.7-0.2-2.1,0.5l0,0c-0.5,0.7-0.4,1.8,0.4,2.3c0,0,0.1,0.1,0.1,0.1c59,34.7,124.9,56,193,62.6c0.9,0.1,1.7-0.6,1.8-1.5
	c0-0.1,0-0.1,0-0.2l0,0C491.2,1000.5,490.5,999.8,489.7,999.8z"/>
<path id="_Path_33" class="st0" d="M806.6,157.8l1.6,1.2c0.4,0.3,0.9,0.2,1.1-0.2c0,0,0,0,0,0l8.3-11.4l3.5,2.5
	c0.4,0.3,0.9,0.2,1.1-0.2c0,0,0,0,0,0l1.1-1.5c0.3-0.4,0.2-0.9-0.2-1.1c0,0,0,0,0,0l-9.9-7.2c-0.4-0.3-0.9-0.2-1.1,0.2c0,0,0,0,0,0
	l-1.1,1.5c-0.3,0.4-0.2,0.9,0.2,1.1c0,0,0,0,0,0l3.5,2.5l-8.3,11.4C806.2,157,806.2,157.5,806.6,157.8
	C806.6,157.8,806.6,157.8,806.6,157.8L806.6,157.8z"/>
<path id="_Compound_Path_6" class="st0" d="M822.4,169c0,0.2,0.2,0.4,0.3,0.5l1.5,1.1c0.4,0.3,0.9,0.2,1.1-0.2c0,0,0,0,0,0l2.8-3.9
	l3.2,2.4c0.7,0.5,1.6,1,2.4,1.2c1.5,0.4,3.1,0.2,4.4-0.6c0.8-0.5,1.5-1.2,2.1-2c1-1.3,1.5-2.9,1.4-4.5c-0.2-1.8-1.3-3.4-2.8-4.4
	l-5.4-3.9c-0.4-0.3-0.9-0.2-1.1,0.2c0,0,0,0,0,0l-9.9,13.6C822.4,168.5,822.4,168.7,822.4,169z M833.7,159l3.2,2.4
	c1.3,0.8,1.6,2.5,0.8,3.8c-0.1,0.1-0.1,0.2-0.2,0.2c-0.5,0.8-1.4,1.2-2.3,1.3h-0.4c-0.5-0.1-0.9-0.3-1.3-0.6l-3.2-2.4L833.7,159z"/>
<path id="_Compound_Path_7" class="st0" d="M816.9,907.9c-1-1.5-2.6-2.6-4.4-2.9c-1.9-0.2-3.8,0.3-5.3,1.5c-2.5,1.8-3.5,4.2-3,6.8
	v0.1c0.3,1,0.7,1.9,1.3,2.8l3.1,4.3c1.2,1.8,3.1,2.9,5.3,3h0.1c1.5-0.1,3-0.6,4.2-1.6c0.5-0.4,1-0.8,1.5-1.3
	c2.1-2.4,2.2-5.5,0.1-8.3L816.9,907.9z M817.8,916.8c-0.4,1.9-2.2,3.2-4.1,3c-0.9-0.2-1.6-0.7-2.1-1.4l-3.1-4.3
	c-1-1.6-0.4-3.7,1.2-4.7c1.4-0.8,3.3-0.6,4.3,0.7l3.1,4.3C817.7,915.1,817.9,915.9,817.8,916.8L817.8,916.8z"/>
<path id="_Path_34" class="st0" d="M843.4,901.8l-10.9-5l-3.5-4.8c-0.3-0.4-0.8-0.4-1.1-0.2c0,0,0,0,0,0l-1.5,1.1
	c-0.4,0.3-0.4,0.8-0.2,1.1c0,0,0,0,0,0l3.5,4.8l1.4,11.9c0.1,0.5,0.5,0.8,0.9,0.7c0.1,0,0.3-0.1,0.4-0.2l1.7-1.2
	c0.2-0.2,0.4-0.5,0.3-0.8l-1-8.3l7.5,3.5c0.3,0.1,0.6,0.1,0.8-0.1l1.7-1.2c0.4-0.3,0.4-0.8,0.2-1.1
	C843.6,902,843.5,901.9,843.4,901.8L843.4,901.8z"/>
<path id="_Compound_Path_8" class="st0" d="M541.6,995.1h-6.1c-1.8-0.1-3.6,0.6-5,1.8l0,0c-1.3,1.3-2,3.1-1.9,5v4.8
	c-0.1,1.9,0.6,3.7,1.9,5c1.4,1.2,3.2,1.9,5,1.8h6.1c0.5,0,0.8-0.4,0.8-0.8l0,0v-16.8C542.4,995.4,542,995.1,541.6,995.1z
	 M538.9,1010h-3.4c-1.8,0.1-3.3-1.2-3.4-2.9c0-0.1,0-0.2,0-0.4v-4.8c-0.1-1.8,1.3-3.2,3-3.3c0.1,0,0.2,0,0.4,0h3.4V1010z"/>
<path id="_Path_35" class="st0" d="M529.4,55.1h4.4v14.1c0,0.5,0.4,0.8,0.8,0.8l0,0h2c0.5,0,0.8-0.4,0.8-0.8v0V55.1h4.3
	c0.5,0,0.8-0.4,0.8-0.8c0,0,0,0,0,0v-1.9c0-0.5-0.4-0.8-0.8-0.8l0,0h-12.3c-0.5,0-0.8,0.4-0.8,0.8c0,0,0,0,0,0v1.9
	C528.6,54.7,529,55.1,529.4,55.1L529.4,55.1z"/>
<path id="_Path_36" class="st0" d="M553.4,70h2.1c0.3,0,0.5-0.1,0.7-0.4l3.8-6.1l3.8,6.1c0.2,0.2,0.4,0.4,0.7,0.4h2.1
	c0.5,0,0.8-0.4,0.8-0.8c0-0.2,0-0.3-0.1-0.5l-5.3-8.3l4.9-7.6c0.3-0.4,0.2-0.9-0.2-1.1c-0.1-0.1-0.3-0.2-0.5-0.2h-2.1
	c-0.3,0-0.5,0.1-0.7,0.4l-3.4,5.4l-3.4-5.4c-0.2-0.2-0.4-0.4-0.7-0.4h-2.1c-0.5,0-0.8,0.4-0.8,0.8c0,0.2,0,0.3,0.1,0.5l4.9,7.6
	l-5.3,8.3c-0.2,0.4-0.1,0.9,0.2,1.1C553.1,69.9,553.2,70,553.4,70L553.4,70z"/>
<path id="_Path_37" class="st0" d="M564.3,995.1h-9.6c-0.5,0-0.8,0.4-0.8,0.8l0,0v1.8c0,0.5,0.4,0.8,0.8,0.8l0,0h6.9v14.1
	c0,0.5,0.4,0.8,0.8,0.8l0,0h1.9c0.5,0,0.8-0.4,0.8-0.8l0,0v-16.8C565.1,995.4,564.7,995.1,564.3,995.1z"/>
<path id="_Path_38" class="st0" d="M992.2,402.7l-5.1,1.6c-1.8,0.5-3.3,1.7-4.2,3.3c-0.8,1.7-0.9,3.7-0.2,5.5c1,3.2,3.2,4.9,6,4.9
	c0.4,0,0.9,0,1.3-0.1c0.4-0.1,0.7-0.5,0.7-0.9c0,0,0-0.1,0-0.1l-0.6-1.9c-0.1-0.4-0.5-0.6-0.8-0.6c-1.5,0.1-2.9-0.9-3.2-2.4
	c-0.7-1.6,0.1-3.5,1.8-4.2c0.1,0,0.2-0.1,0.3-0.1l5.1-1.6c0.8-0.3,1.7-0.3,2.5,0.1c0.8,0.5,1.4,1.2,1.7,2.1c0.6,1.4,0.1,3-1.2,3.8
	c-0.3,0.2-0.4,0.6-0.3,0.9l0.6,1.9c0.1,0.4,0.6,0.7,1,0.5c0,0,0.1,0,0.1,0c3.1-1.5,4.3-4.6,3.1-8.2c-0.2-0.7-0.5-1.4-0.9-2
	C998.3,402.6,995.4,401.7,992.2,402.7z"/>
<path id="_Path_39" class="st0" d="M975.7,387.7c-0.4,0.1-0.6,0.6-0.5,1l0.6,1.8c0.1,0.4,0.6,0.6,1,0.5l5.6-1.8l11.8,2.3h0.2
	c0.5,0,0.8-0.4,0.8-0.8c0-0.1,0-0.2,0-0.3l-0.7-2c-0.1-0.3-0.3-0.5-0.6-0.5l-8.2-1.6l5.7-6.1c0.2-0.2,0.3-0.5,0.2-0.8l-0.7-2
	c-0.1-0.4-0.6-0.7-1-0.5c-0.1,0-0.3,0.1-0.4,0.2l-8.2,8.8L975.7,387.7z"/>
<path id="_Compound_Path_9" class="st0" d="M504,70h1.9c0.4,0,0.7-0.2,0.8-0.6l1.1-3.2h6.5l1.1,3.2c0.1,0.3,0.4,0.6,0.8,0.6h1.9
	c0.5,0,0.8-0.4,0.8-0.8c0-0.1,0-0.2,0-0.3l-6-16.8c-0.1-0.3-0.4-0.5-0.8-0.5H510c-0.3,0-0.7,0.2-0.8,0.5l-6,16.8
	c-0.2,0.4,0.1,0.9,0.5,1.1C503.8,70,503.9,70,504,70L504,70z M511.1,57l2,6h-4.1L511.1,57z"/>
<path id="_Path_40" class="st0" d="M994.1,673.5l-11.8,2.3l-5.6-1.8c-0.4-0.1-0.9,0.1-1,0.5l-0.6,1.8c-0.1,0.4,0.1,0.9,0.5,1
	l5.6,1.8l8.2,8.8c0.2,0.2,0.4,0.3,0.6,0.3h0.2c0.3-0.1,0.5-0.3,0.6-0.5l0.7-2c0.1-0.3,0-0.6-0.2-0.8l-5.7-6.1l8.2-1.6
	c0.3-0.1,0.5-0.3,0.6-0.5l0.7-2c0.1-0.4-0.1-0.9-0.5-1C994.4,673.5,994.3,673.5,994.1,673.5L994.1,673.5z"/>
<path id="_Path_41" class="st0" d="M1001.7,650.3l-11.8,2.3l-5.6-1.8c-0.4-0.1-0.9,0.1-1,0.5l-0.6,1.8c-0.1,0.4,0.1,0.9,0.5,1
	l5.6,1.8l8.2,8.8c0.2,0.2,0.4,0.3,0.6,0.3h0.2c0.3-0.1,0.5-0.3,0.6-0.5l0.7-2c0.1-0.3,0-0.6-0.2-0.8l-5.7-6.1l8.2-1.6
	c0.3-0.1,0.5-0.3,0.6-0.5l0.7-2c0.1-0.4-0.1-0.9-0.5-1C1002,650.3,1001.9,650.3,1001.7,650.3L1001.7,650.3z"/>
<path id="_Compound_Path_10" class="st0" d="M783.1,140.7l1.5,1.1c0.4,0.3,0.9,0.2,1.1-0.2c0,0,0,0,0,0l4-5.5l1.8,1.3l-0.8,8.3
	c0,0.3,0.1,0.6,0.3,0.8l1.7,1.3c0.4,0.3,0.9,0.2,1.1-0.2c0.1-0.1,0.1-0.3,0.2-0.4l0.7-7.5c0.7,0.3,1.4,0.4,2.1,0.5
	c0.6,0,1.2-0.1,1.8-0.4c1-0.4,1.8-1.1,2.4-2c1.1-1.3,1.4-3.1,0.9-4.7c-0.5-1.3-1.3-2.3-2.5-3.1l-5.6-4.1c-0.4-0.3-0.9-0.2-1.1,0.2
	c0,0,0,0,0,0l-9.9,13.5C782.7,139.9,782.7,140.4,783.1,140.7C783.1,140.7,783.1,140.7,783.1,140.7z M794.1,130.2l3.5,2.5
	c0.9,0.5,1.3,1.7,0.8,2.6c-0.1,0.1-0.1,0.2-0.2,0.3c-0.3,0.4-0.7,0.7-1.2,0.8c-0.6,0.1-1.2-0.1-1.7-0.5l-3.5-2.5L794.1,130.2z"/>
<path id="_Path_42" class="st0" d="M966,360.5l0.6,1.8c0.1,0.4,0.6,0.6,1,0.5l10.5-3.3l-8.8,9.8c-0.2,0.2-0.3,0.5-0.2,0.8l0.7,2.1
	c0.1,0.4,0.6,0.6,1,0.5l16-5.3c0.4-0.1,0.6-0.6,0.5-1l-0.6-1.8c-0.1-0.4-0.6-0.6-1-0.5l-10.5,3.4l8.9-9.8c0.2-0.2,0.3-0.5,0.2-0.8
	l-0.7-2.1c-0.1-0.4-0.6-0.6-1-0.5l-16,5.2C966.1,359.6,965.9,360.1,966,360.5C966,360.5,966,360.5,966,360.5z"/>
<path id="_Path_43" class="st0" d="M792.3,918.6c-0.3-0.3-0.7-0.3-1.1-0.1l-1.2,0.8c-0.1,0.1-0.2,0.3-0.4,0.3l-0.1,0.1
	c-0.3,0.2-0.4,0.7-0.2,1l4.9,9.3l-7.4-7.5c-0.3-0.3-0.7-0.3-1.1-0.1l-0.1,0.1c-0.1,0.1-0.2,0.3-0.4,0.3l-1.2,0.8
	c-0.3,0.2-0.4,0.7-0.2,1l7.9,15c0.1,0.2,0.3,0.4,0.5,0.4h0.2c0.2,0,0.3-0.1,0.5-0.2l1.5-1.1c0.3-0.2,0.4-0.7,0.2-1.1l-6.1-10.9
	l6.9,7.1c0.3,0.3,0.7,0.3,1.1,0.1l0.1-0.1c0.1-0.2,0.3-0.3,0.5-0.3l0.1-0.1c0.3-0.2,0.4-0.7,0.2-1l-4.6-8.8l8.5,9.2
	c0.3,0.3,0.8,0.4,1.1,0.1l1.5-1.1c0.4-0.3,0.5-0.8,0.2-1.1c0,0-0.1-0.1-0.1-0.1L792.3,918.6z"/>
<path id="_Path_44" class="st0" d="M986.8,697.5l-1.8-0.6c-0.4-0.1-0.9,0.1-1,0.5l-2.5,7.9l-7.9-12c-0.1-0.2-0.3-0.3-0.4-0.3
	l-2.3-0.7c-0.4-0.1-0.9,0.1-1,0.5l-3.8,11.8c-0.1,0.4,0.1,0.9,0.5,1l1.8,0.6c0.4,0.1,0.9-0.1,1-0.5l2.6-8.1l7.8,12.1
	c0.1,0.2,0.3,0.3,0.4,0.3l2.3,0.7c0.4,0.1,0.9-0.1,1-0.5l3.8-11.5C987.4,698.1,987.2,697.7,986.8,697.5z"/>
<path id="_Path_45" class="st0" d="M73.5,414.8c1.3,0.5,2.8,0.4,4.1-0.1c0.2-0.1,0.3-0.2,0.5-0.3c0.8-0.5,1.4-1.2,1.9-1.9l1.8-2.7
	c0.1-0.2,0.3-0.4,0.4-0.6c0.1-0.1,0.2-0.3,0.4-0.4c0.4-0.4,1.1-0.5,1.6-0.2c0.4,0.1,0.8,0.4,1,0.8c0.3,0.7,0.3,1.5,0,2.3
	c-0.3,1.3-1.5,2.3-2.9,2.3c-0.4,0-0.7,0.2-0.8,0.6l-0.8,2c-0.1,0.4,0.1,0.9,0.5,1c0,0,0.1,0,0.1,0c0.3,0,0.6,0.1,0.9,0.1
	c2.8,0,5-1.8,6-4.9c0.6-1.5,0.6-3.2,0.1-4.8c-0.6-1.3-1.8-2.3-3.2-2.7c-0.5-0.2-1.1-0.3-1.6-0.4c-1-0.1-2.1,0.1-3,0.6
	c-0.3,0.2-0.5,0.4-0.8,0.6c-0.5,0.5-1,1-1.3,1.6l-1.7,2.6c-0.1,0.1-0.2,0.3-0.3,0.4c-0.4,0.7-1.2,1-2,0.8c-1.1-0.4-1.5-1.4-1-2.9
	c0.3-1,1-1.7,2-1.9c0.3,0,0.6-0.3,0.7-0.6l0.7-2.2c0.1-0.4-0.1-0.9-0.5-1c-0.1,0-0.2,0-0.2,0h-0.2c-2.7,0-4.8,1.7-5.7,4.5
	c-0.6,1.6-0.6,3.4,0.2,5C71,413.6,72.2,414.5,73.5,414.8z"/>
<path id="_Path_46" class="st0" d="M84,660.8c1.1-0.4,2.2-1,3-1.8c1.7-1.7,2.2-4.2,1.3-6.9c-1.3-3.9-4.3-5.7-8.1-4.7l-0.5,0.2
	L69.2,651c-0.4,0.1-0.6,0.6-0.5,1l0.6,1.8c0.1,0.4,0.6,0.6,1,0.5l10.5-3.4l0.3-0.1h0.1c1.7-0.4,3.4,0.6,3.8,2.3
	c0.3,0.9,0.3,1.8-0.1,2.7c-0.4,0.8-1.1,1.4-2,1.6l-10.5,3.4c-0.4,0.1-0.6,0.6-0.5,1l0.6,1.8c0.1,0.4,0.6,0.6,1,0.5L84,660.8
	L84,660.8z"/>
<path id="_Path_47" class="st0" d="M97,680.3c0.1-0.2,0.1-0.4,0-0.6l-3-9.1c-0.1-0.4-0.6-0.6-1-0.5l-1.8,0.6c-0.4,0.1-0.6,0.6-0.5,1
	l2.1,6.5l-3.8,1.2l-1.6-4.8c-0.1-0.4-0.6-0.6-1-0.5l-1.8,0.6c-0.4,0.1-0.6,0.6-0.5,1l1.6,4.9l-3.7,1.2l-2.1-6.5
	c-0.1-0.4-0.6-0.6-1-0.5l-1.8,0.6c-0.4,0.1-0.6,0.6-0.5,1l3,9.1c0.1,0.4,0.6,0.6,1,0.5l16-5.2C96.8,680.6,96.9,680.5,97,680.3z"/>
<path id="_Compound_Path_11" class="st0" d="M238.4,175.7c0.1,0.2,0.3,0.3,0.5,0.3h0.1c0.2,0,0.3-0.1,0.5-0.2l1.5-1.1
	c0.4-0.3,0.4-0.8,0.2-1.1c0,0,0,0,0,0l-2.8-3.9l3.2-2.4c1-0.7,1.9-1.7,2.4-2.8c0.3-0.8,0.5-1.7,0.4-2.6c0-0.6-0.2-1.1-0.4-1.7
	c-0.2-0.7-0.6-1.3-1-1.9c-1.8-2.5-4.6-3.4-7.2-2.4c-0.6,0.2-1.1,0.6-1.7,0.9l-5.4,3.9c-0.4,0.3-0.4,0.8-0.2,1.1c0,0,0,0,0,0
	L238.4,175.7z M236.2,159.9c1.2-0.9,2.9-0.8,3.8,0.4c0.1,0.1,0.1,0.2,0.2,0.2c0.5,0.7,0.7,1.6,0.5,2.4c-0.2,0.6-0.6,1.2-1.1,1.6
	l-3.2,2.4l-3.4-4.7L236.2,159.9z"/>
<path id="_Compound_Path_12" class="st0" d="M249,896.3c0-0.2-0.2-0.4-0.3-0.5l-5.8-4.2c-1.1-0.9-2.4-1.3-3.8-1.4
	c-1.7,0-3.2,0.9-4.1,2.3c-0.1,0.1-0.2,0.3-0.3,0.4c-0.7,1.2-0.8,2.6-0.4,3.9v0.1c-1.4,0.1-2.7,0.8-3.5,2c-0.9,1.1-1.2,2.6-1,4
	c0.4,1.5,1.3,2.9,2.6,3.7l5.5,4c0.1,0.1,0.3,0.2,0.5,0.2h0.1c0.2,0,0.4-0.2,0.5-0.3l9.8-13.6C248.9,896.7,249,896.5,249,896.3z
	 M237.7,906.3l-3.4-2.5c-0.9-0.5-1.3-1.6-0.8-2.6c0.1-0.1,0.1-0.2,0.2-0.3c0.3-0.5,0.8-0.8,1.3-0.8h0.1c0.5,0,1.1,0.2,1.5,0.5
	l3.4,2.5L237.7,906.3z M242,900.3l-3.7-2.8c-0.8-0.5-1.2-1.5-0.9-2.4c0.1-0.2,0.2-0.4,0.3-0.5c0.6-0.9,1.7-1.2,2.6-0.6
	c0.1,0.1,0.3,0.2,0.4,0.3l3.8,2.7L242,900.3z"/>
<path id="_Path_48" class="st0" d="M247.2,149l14.7,10.1c0.3,0.2,0.7,0.2,1,0l1.8-1.3c0.3-0.2,0.4-0.6,0.3-0.9l-5-17.1
	c-0.1-0.4-0.6-0.7-1-0.6c-0.1,0-0.2,0.1-0.3,0.1l-1.6,1.2c-0.3,0.2-0.4,0.6-0.3,0.9l3.7,12.5l-10.8-7.4c-0.3-0.2-0.7-0.2-0.9,0
	l-1.6,1.2c-0.4,0.3-0.5,0.8-0.2,1.1C247,148.8,247.1,148.9,247.2,149L247.2,149z"/>
<path id="_Compound_Path_13" class="st0" d="M105,705c0.1-0.2,0.1-0.4,0-0.6l-1.8-5.9c-1.1-3.2-3.4-5-6.4-4.9l0,0
	c-0.7,0-1.4,0.2-2.1,0.4l-4.7,1.5c-0.7,0.2-1.4,0.5-2,0.9h-0.1c-2.5,1.7-3.4,4.5-2.3,7.8l1.9,5.8c0.1,0.4,0.6,0.6,1,0.5l16-5.2
	C104.7,705.3,104.9,705.2,105,705z M90,706.4l-1.1-3.2c-0.3-0.9-0.3-1.8,0.1-2.7c0.4-0.8,1.1-1.4,2-1.6l4.6-1.5l0.2-0.1
	c0.3-0.1,0.6-0.1,0.9-0.1c1.4,0,2.7,1,3,2.4l1.1,3.3L90,706.4z"/>
<path id="_Path_49" class="st0" d="M517.3,995.1h-1.9c-0.5,0-0.8,0.4-0.8,0.8l0,0v11l-6.6-11.5c-0.1-0.3-0.4-0.4-0.7-0.4H505
	c-0.5,0-0.8,0.4-0.8,0.8l0,0v16.8c0,0.5,0.4,0.8,0.8,0.8l0,0h1.9c0.5,0,0.8-0.4,0.8-0.8l0,0v-11l6.6,11.5c0.1,0.3,0.4,0.4,0.7,0.4
	h2.2c0.5,0,0.8-0.4,0.8-0.8l0,0v-16.8C518.1,995.5,517.8,995.1,517.3,995.1C517.3,995.1,517.3,995.1,517.3,995.1z"/>
<path id="_Compound_Path_14" class="st0" d="M288.3,924.6l-5-3.6c-1.6-1.3-3.7-1.8-5.8-1.4c-1.5,0.4-2.9,1.4-3.8,2.7l-0.1,0.1l0,0
	l-2.8,3.8c-1.2,1.5-1.7,3.3-1.4,5.2c0.4,1.8,1.5,3.4,3,4.4l5,3.6c0.1,0.1,0.3,0.2,0.5,0.2h0.1c0.2,0,0.4-0.2,0.5-0.3l9.9-13.6
	C288.8,925.3,288.7,924.8,288.3,924.6C288.3,924.5,288.3,924.5,288.3,924.6L288.3,924.6z M277.3,935.1l-2.8-2c-1.5-0.9-2-2.9-1-4.4
	c0.1-0.1,0.1-0.2,0.2-0.3l2.8-3.9l0.1-0.2c0.6-0.8,1.5-1.2,2.5-1.2c0.8,0,1.5,0.3,2.1,0.8l2.8,2L277.3,935.1z"/>
<path id="_Compound_Path_15" class="st0" d="M89.8,369.3l5.1,1.6c0.8,0.3,1.6,0.4,2.5,0.4c0.5,0,1.1-0.1,1.6-0.2h0.1
	c2.2-0.7,3.9-2.5,4.4-4.7c1.3-3.9-0.2-7.1-3.8-8.5l-0.5-0.2l-5.1-1.6c-1.7-0.6-3.6-0.6-5.3,0.2c-1.7,0.9-2.9,2.5-3.4,4.3
	c-0.8,2.1-0.6,4.4,0.7,6.2C87.1,368,88.3,368.9,89.8,369.3z M88.8,361.7L88.8,361.7c0.4-1.7,2.2-2.7,3.9-2.3c0.1,0,0.2,0.1,0.3,0.1
	l0,0l5.1,1.6l0.3,0.1c1.6,0.6,2.4,2.5,1.8,4.1c0,0,0,0.1,0,0.1c-0.3,0.9-0.9,1.7-1.7,2.1c-0.8,0.4-1.7,0.4-2.5,0.1l-5.1-1.6
	c-1.7-0.5-2.7-2.2-2.2-3.9C88.7,361.9,88.7,361.8,88.8,361.7L88.8,361.7z"/>
<path id="_Path_50" class="st0" d="M77.5,388.8l10,3.3l0,0l5.9,1.9c0.4,0.1,0.9-0.1,1-0.5l0.6-1.8c0.1-0.4-0.1-0.9-0.5-1l-6.3-2.1
	l1.6-4.8c0.1-0.4-0.1-0.9-0.5-1l-1.8-0.6c-0.4-0.1-0.9,0.1-1,0.5l-1.6,4.7l-3.7-1.2l2.1-6.5c0.1-0.4-0.1-0.9-0.5-1l-1.8-0.6
	c-0.4-0.1-0.9,0.1-1,0.5l-3,9.1C76.8,388.2,77,388.6,77.5,388.8z"/>
<path id="_Path_51" class="st0" d="M263.9,906.5L263.9,906.5c-1.6-1.3-3.7-1.8-5.7-1.4H258c-1.5,0.5-2.9,1.5-3.8,2.8l-6.5,8.9
	c-0.3,0.4-0.2,0.9,0.2,1.1c0,0,0,0,0,0l1.5,1.1c0.4,0.3,0.9,0.2,1.1-0.2c0,0,0,0,0,0l6.5-8.9c0.9-1.5,2.9-1.9,4.4-0.9
	c0.1,0.1,0.2,0.2,0.4,0.3c0.8,0.5,1.3,1.3,1.5,2.3c0.1,0.9-0.1,1.8-0.7,2.4l-6.5,8.9c-0.3,0.4-0.2,0.9,0.2,1.1c0,0,0,0,0,0l1.5,1.1
	c0.4,0.3,0.9,0.2,1.1-0.2c0,0,0,0,0,0l6.5-8.9c1-1.3,1.5-2.8,1.5-4.4C266.8,909.5,265.6,907.6,263.9,906.5z"/>
<path id="_Path_52" class="st0" d="M273.4,141.8l0.1,0.1l0,0c0,0.1,0.1,0.1,0.1,0.2l0.5,0.6c1.2,1.8,3.1,2.9,5.3,3
	c1.6,0,3.1-0.6,4.3-1.6c3.3-2.4,4-5.8,2-9.1c-0.1-0.2-0.2-0.3-0.3-0.5l-1.9-2.6c-0.3-0.4-0.8-0.4-1.1-0.2c0,0,0,0,0,0l-4.3,3.1
	c-0.4,0.3-0.4,0.8-0.2,1.1c0,0,0,0,0,0l1.1,1.5c0.3,0.4,0.8,0.4,1.1,0.2c0,0,0,0,0,0l2.1-1.5l0.3,0.4c0.1,0.1,0.1,0.2,0.2,0.3
	c0.9,1.7,0.2,3.8-1.5,4.6c-1.4,0.8-3.2,0.4-4.3-0.9l-3.1-4.3c-1.1-1.4-0.9-3.3,0.5-4.4c0.1-0.1,0.2-0.2,0.4-0.3
	c1.1-0.9,2.6-1,3.8-0.2c0.3,0.2,0.7,0.2,0.9,0l1.6-1.2c0.4-0.3,0.4-0.8,0.2-1.1c0,0-0.1-0.1-0.1-0.1c-2.4-2.2-5.5-2.3-8.5-0.1
	c-0.9,0.6-1.7,1.4-2.2,2.4c-1.4,2.2-1.1,4.8,0.6,7.2L273.4,141.8z"/>
<path id="_Compound_Path_16" class="st0" d="M297.6,532.5c0-45.8-37.2-82.9-83-82.9c-3.4,0-6.9,0.2-10.3,0.6
	c-1.2,0.1-2.3,0.3-3.5,0.5c-45.1,7.6-75.5,50.4-67.9,95.6c5.9,34.8,33.1,62,67.9,67.9c1.2,0.2,2.3,0.4,3.5,0.5
	c45.4,5.7,86.9-26.5,92.6-72C297.4,539.4,297.6,536,297.6,532.5z M245.2,459c-3.2-0.8-6.9-1.9-9.4-1.9c-2.7,0-2.6-1.2-2.7-2
	C237.2,456.1,241.3,457.4,245.2,459L245.2,459z M203.6,611.3c-1.2-0.2-2.4-0.4-3.5-0.6c-43.2-8.1-71.6-49.7-63.5-92.9
	c6.1-32.2,31.3-57.5,63.5-63.5c1.2-0.2,2.3-0.4,3.5-0.6c3.7-0.5,7.4-0.8,11.2-0.8c5.3,0,10.6,0.5,15.7,1.6c-1.3,0-2.6,0.3-3.7,0.8
	c-1.9,1.1,0.4,4.6-1.6,5.5s-2.7-0.8-4.2,1.4s-4,4.8-1.5,5.5s4.9,3.2,7,2.9s-0.4,2.7,2.5,5.1s1.6,8.3,4.3,7s-1.1,17,0.7,17.9
	s3.8,3.6,6.4,3.2s-1.2-1.9-0.5-3.8s3.6-6.3,5.7-7.6s3.4-3.3,5.6-4.1s-1.9-1.4-0.8-2.9s3.5-1.6,3.8-2.7s-2.9-1.7-2.3-3.5
	s0.9-3.8,3.4-5.4s-1.5-1.6-0.6-3.4s3.4-3.7,1.6-5.5c-0.2-0.2-0.5-0.5-0.6-0.8c37.7,22.5,50.1,71.4,27.5,109.1
	c-14.4,24.1-40.3,38.8-68.3,38.8C211,612.1,207.3,611.9,203.6,611.3z"/>
<path id="_Path_53" class="st0" d="M569.4,913.5l-3,0.2l-0.9-11.4l3-0.2c0.5,0,0.8-0.4,0.8-0.9c0,0,0,0,0,0l-0.2-1.8
	c0-0.2-0.1-0.4-0.3-0.6c-0.2-0.1-0.4-0.2-0.6-0.2l-9.5,0.8c-0.5,0-0.8,0.4-0.8,0.9c0,0,0,0,0,0l0.2,1.8c0,0.2,0.1,0.4,0.3,0.6
	c0.2,0.1,0.4,0.2,0.6,0.2l3-0.2l0.9,11.4l-3,0.2c-0.5,0-0.8,0.4-0.8,0.9c0,0,0,0,0,0l0.2,1.8c0,0.4,0.4,0.8,0.8,0.8h0.1l9.5-0.8
	c0.5,0,0.8-0.4,0.8-0.9c0,0,0,0,0,0l-0.2-1.8C570.3,913.8,569.9,913.4,569.4,913.5z"/>
<path id="_Path_54" class="st0" d="M569.2,153.9c0.2,0,0.5,0,0.7-0.1l1.5-1.1c0.3-0.2,0.4-0.6,0.3-1c-0.2-0.4-0.3-0.9-0.2-1.3
	c0-1.4,1.2-2.5,2.6-2.5c0.1,0,0.2,0,0.2,0c1.4,0.1,2.4,1.3,2.3,2.7c0,0,0,0,0,0.1c-0.1,1.1-0.8,2.1-1.7,2.7l-7.7,6
	c-0.2,0.1-0.3,0.3-0.3,0.6l-0.2,2c-0.1,0.4,0.3,0.9,0.7,0.9c0,0,0,0,0,0l10.4,1.1h0.1c0.4,0,0.8-0.3,0.8-0.7l0.2-1.5
	c0.1-0.4-0.3-0.9-0.7-0.9c0,0,0,0,0,0l-6.3-0.7l4.9-3.9c1.9-1.5,3-2.7,3.2-5c0.1-1.5-0.3-3-1.3-4.2c-2.1-2.6-6-3-8.6-0.8
	c-1.2,1-2,2.4-2.2,4c-0.2,1.2,0.1,2.4,0.7,3.5C568.8,153.7,569,153.9,569.2,153.9z"/>
<path id="_Compound_Path_17" class="st0" d="M629.1,893.1c-0.3-1.4-1.1-2.6-2.4-3.4c-1.4-0.7-3-0.8-4.5-0.4l-6.6,1.6
	c-0.4,0.1-0.7,0.6-0.6,1c0,0,0,0,0,0l4,16.3c0.1,0.4,0.4,0.6,0.8,0.6h0.2l7-1.7c3.5-0.9,5.2-3.3,4.4-6.6c-0.4-1.6-1.5-2.8-3-3.4
	C629.2,896,629.5,894.5,629.1,893.1z M620,897.5l-0.9-3.8l4.1-1c0.6-0.2,1.2-0.1,1.8,0.2c0.8,0.6,1.1,1.7,0.6,2.6
	c-0.4,0.5-0.9,0.9-1.5,1L620,897.5z M626.3,903.7L626.3,903.7l-4.5,1.1l-1-3.9l4.5-1.1c1.1-0.3,2.2,0.4,2.5,1.5
	C628,902.3,627.3,903.4,626.3,903.7z"/>
<path id="_Path_55" class="st0" d="M843.1,314.5l1.8,0.4c0.4,0.1,0.7-0.1,0.9-0.4c0.2-0.4,0.5-0.7,0.9-1c0.6-0.4,1.3-0.6,2-0.5
	c0.7,0.1,1.3,0.5,1.7,1.1c0.7,1.1,0.4,2.7-0.7,3.5c-0.9,0.6-2.1,0.8-3.1,0.4l-9.5-2c-0.2,0-0.4,0-0.6,0.1l-1.6,1.1
	c-0.4,0.3-0.5,0.8-0.2,1.1c0,0,0,0,0,0l5.9,8.7c0.1,0.2,0.3,0.3,0.5,0.4h0.2c0.2,0,0.3,0,0.5-0.1l1.2-0.8c0.4-0.3,0.5-0.8,0.2-1.1
	c0,0,0,0,0,0l-3.5-5.2l6.2,1.2c2.4,0.5,4,0.5,5.9-0.8c2.6-1.9,3.3-5.6,1.4-8.3c-1.9-2.8-5.6-3.5-8.4-1.6c-1,0.7-1.8,1.7-2.2,2.8
	c-0.1,0.4,0.1,0.9,0.5,1c0,0,0.1,0,0.1,0L843.1,314.5z"/>
<path id="_Path_56" class="st0" d="M453,895l0.5-2.3c0.1-0.4-0.2-0.9-0.6-1c0,0,0,0,0,0l-11.8-2.8c-0.4-0.1-0.9,0.2-1,0.6
	c0,0,0,0,0,0l-0.4,1.8c-0.1,0.4,0.2,0.9,0.6,1c0,0,0,0,0,0l8,1.9l-11.4,8.8c-0.1,0.1-0.3,0.3-0.3,0.5l-0.5,2.3
	c-0.1,0.4,0.2,0.9,0.6,1c0,0,0,0,0,0l12.1,2.8h0.2c0.4,0,0.7-0.3,0.8-0.6l0.4-1.8c0.1-0.4-0.2-0.9-0.6-1c0,0,0,0,0,0l-8.3-2
	l11.4-8.7C452.9,895.4,453,895.2,453,895z"/>
<path id="_Path_57" class="st0" d="M415,176l-2.4,0.8c-0.4,0.1-0.6,0.6-0.5,1l0.8,2.4c0.1,0.4,0.6,0.6,1,0.5l2.4-0.8
	c0.4-0.1,0.6-0.6,0.5-1l-0.8-2.4C415.9,176.1,415.4,175.9,415,176z"/>
<path id="_Path_58" class="st0" d="M490.9,144.7c-3.3,0.4-5.7,3.3-5.4,6.7c0.1,1.2,0.6,2.4,1.5,3.2c0.3,0.3,0.8,0.4,1.2,0.1
	c0,0,0,0,0.1-0.1l1.2-1.4c0.2-0.3,0.2-0.7,0-1c-0.3-0.4-0.5-0.8-0.5-1.3c-0.1-0.8,0.1-1.5,0.6-2.2c0.4-0.5,1-0.8,1.7-0.9
	c1.4-0.2,2.6,0.8,2.8,2.2c0,0,0,0.1,0,0.1c0.1,1.1-0.3,2.2-1.1,3l-6.2,7.4c-0.1,0.2-0.2,0.4-0.2,0.6l0.2,2c0,0.4,0.4,0.7,0.8,0.7
	h0.1l10.4-1.1c0.5,0,0.8-0.4,0.7-0.9c0,0,0,0,0,0l-0.2-1.5c0-0.5-0.4-0.8-0.9-0.7c0,0,0,0,0,0l-6.3,0.7l4-4.9
	c1.6-1.9,2.3-3.3,2.1-5.6C497.2,146.6,494.2,144.3,490.9,144.7L490.9,144.7z"/>
<path id="_Path_59" class="st0" d="M511.8,900L511.8,900c0-0.4-0.2-0.7-0.5-0.9c-0.6-0.5-1.4-0.4-1.9,0.2l-13.4,16.5
	c-0.5,0.6-0.4,1.5,0.2,1.9c0.2,0.2,0.5,0.3,0.8,0.3c0.4,0,0.8-0.2,1.1-0.5l13.4-16.5C511.7,900.7,511.8,900.3,511.8,900z"/>
<path id="_Path_60" class="st0" d="M861.2,732.7l1.6,1c0.1,0.1,0.3,0.1,0.4,0.1h0.2c0.2-0.1,0.4-0.2,0.5-0.4l4.9-8.2
	c0.2-0.4,0.1-0.9-0.3-1.1c0,0,0,0,0,0l-1.6-1c-0.4-0.2-0.9-0.1-1.1,0.3c0,0,0,0,0,0l-1.5,2.6l-9.8-5.9l1.5-2.6
	c0.2-0.4,0.1-0.9-0.3-1.1c0,0,0,0,0,0l-1.6-1c-0.4-0.2-0.9-0.1-1.1,0.3c0,0,0,0,0,0l-4.9,8.2c-0.2,0.4-0.1,0.9,0.3,1.1c0,0,0,0,0,0
	l1.6,1c0.4,0.2,0.9,0.1,1.1-0.3c0,0,0,0,0,0l1.5-2.6l9.8,5.9l-1.5,2.6C860.7,732,860.9,732.5,861.2,732.7z"/>
<path id="_Compound_Path_18" class="st0" d="M741.2,857.5c0.3,0.1,0.6,0.1,0.8,0l1.8-1.1c0.4-0.2,0.5-0.7,0.3-1.1
	c-0.1-0.1-0.2-0.2-0.3-0.3l-6.7-3.4c1.1-1,1.7-2.5,1.5-4c0-0.5-0.2-0.9-0.3-1.3l0-0.1c-0.2-0.4-0.3-0.7-0.6-1.1
	c-0.7-1.3-1.9-2.2-3.4-2.6c-1.6-0.3-3.1,0.1-4.4,1l-5.9,3.7c-0.4,0.2-0.5,0.7-0.3,1.1l8.9,14.2c0.1,0.2,0.3,0.3,0.5,0.4h0.2
	c0.2,0,0.3,0,0.4-0.1l1.6-1c0.4-0.2,0.5-0.7,0.3-1.1l-3.6-5.7l1.8-1.2L741.2,857.5z M730.2,851.9l-2.1-3.3l3.7-2.3
	c0.5-0.4,1.1-0.5,1.8-0.4c0.5,0.1,0.9,0.5,1.2,0.9c0.3,0.4,0.4,0.9,0.3,1.4c-0.2,0.6-0.6,1.1-1.1,1.4l0,0L730.2,851.9z"/>
<path id="_Path_61" class="st0" d="M789.9,265.6c0.2,0.1,0.4,0.2,0.6,0.2l0,0c0.2,0,0.4-0.1,0.6-0.3l1-1.1c0.3-0.3,0.3-0.8,0-1.2
	c0,0,0,0,0,0l-4.6-4.3l6.3-0.2c2.5,0,4-0.4,5.6-2c1-1.1,1.6-2.6,1.5-4.1c-0.1-3.4-2.9-6-6.2-5.9c-1.6,0-3.2,0.7-4.3,1.9
	c-0.9,0.9-1.4,2-1.5,3.2c0,0.5,0.3,0.9,0.7,0.9c0,0,0.1,0,0.1,0h1.9c0.4,0,0.7-0.3,0.8-0.6c0.1-0.4,0.3-0.9,0.6-1.2
	c0.9-1.1,2.5-1.4,3.6-0.5c1.1,0.9,1.4,2.5,0.5,3.6c-0.1,0.1-0.1,0.2-0.2,0.2c-0.8,0.8-1.9,1.2-3,1.1l-9.8,0.1
	c-0.2,0-0.4,0.1-0.6,0.3l-1.3,1.4c-0.3,0.3-0.3,0.8,0,1.2c0,0,0,0,0,0L789.9,265.6z"/>
<path id="_Path_62" class="st0" d="M723.6,209.6c-0.4-0.2-0.9-0.1-1.1,0.3c0,0,0,0,0,0l-1.3,2.2c-0.2,0.4-0.1,0.9,0.3,1.1
	c0,0,0,0,0,0l2.2,1.3c0.1,0.1,0.3,0.1,0.4,0.1h0.2c0.2-0.1,0.4-0.2,0.5-0.4l1.3-2.2c0.2-0.4,0.1-0.9-0.3-1.1c0,0,0,0,0,0
	L723.6,209.6z"/>
<path id="_Path_63" class="st0" d="M687.3,886.4c0.2,0.1,0.4,0.1,0.6,0l1.6-0.7c0.4-0.2,0.6-0.7,0.4-1.1c0,0,0,0,0,0l-6.5-15.5
	c-0.2-0.4-0.7-0.6-1.1-0.4c0,0,0,0,0,0l-2,0.9c-0.3,0.1-0.5,0.5-0.5,0.8l0.6,9.4l-6.3-7c-0.2-0.3-0.6-0.3-0.9-0.2l-2,0.9
	c-0.4,0.2-0.6,0.7-0.4,1.1c0,0,0,0,0,0l6.5,15.5c0.2,0.4,0.7,0.6,1.1,0.4c0,0,0,0,0,0l1.6-0.7c0.4-0.2,0.6-0.7,0.4-1.1c0,0,0,0,0,0
	l-4.3-10.1l4.5,5c0.2,0.3,0.6,0.3,0.9,0.2l1.1-0.5c0.3-0.1,0.5-0.5,0.5-0.8l-0.4-6.7l4.3,10.1C687,886.2,687.1,886.3,687.3,886.4z"/>
<path id="_Compound_Path_19" class="st0" d="M659.4,169.1c0.9-2.6-0.5-5.5-3.1-6.3c0,0,0,0,0,0c-0.5-0.2-1-0.3-1.6-0.3
	c-2.1,0-4.1,1.4-4.7,3.4c-0.4,1.2-0.4,2.4,0.1,3.6l0,0c-1.7,0.6-3,2-3.6,3.7c-1,3.1,0.6,6.5,3.7,7.5c0.6,0.2,1.3,0.3,1.9,0.3
	c2.5,0,4.8-1.6,5.6-4l0,0c0.6-1.7,0.3-3.6-0.6-5.1C658.2,171.3,659,170.3,659.4,169.1z M654.6,175.8c-0.3,1.2-1.4,2-2.6,2.1
	c-0.3,0-0.5,0-0.8-0.1c-0.7-0.2-1.3-0.8-1.5-1.4c-0.3-0.7-0.3-1.5,0-2.2c0.2-0.8,0.8-1.4,1.5-1.8c0.6-0.3,1.3-0.3,1.9-0.1
	c0.7,0.2,1.3,0.8,1.5,1.4C654.8,174.3,654.8,175.1,654.6,175.8L654.6,175.8z M656.3,168.1c-0.2,0.5-0.5,1-1,1.2
	c-0.4,0.2-0.8,0.2-1.2,0.1c-0.9-0.3-1.4-1.3-1.1-2.2c0-0.1,0.1-0.2,0.1-0.2l0,0c0.2-0.5,0.5-1,1-1.3c0.2-0.1,0.4-0.2,0.7-0.2
	c0.2,0,0.4,0,0.5,0.1c0.9,0.3,1.4,1.3,1.1,2.3C656.3,168,656.3,168.1,656.3,168.1L656.3,168.1z"/>
<path id="_Compound_Path_20" class="st0" d="M826.9,784l3.9-4.7c2.8-3.3,2.5-7-0.8-9.7l0,0l-3.7-3c-1.4-1.2-3.2-1.9-5-1.8
	c-1.9,0.2-3.6,1.2-4.7,2.7l-3.9,4.7c-0.3,0.3-0.3,0.9,0.1,1.2c0,0,0,0,0,0l12.9,10.7C826.1,784.4,826.7,784.3,826.9,784
	C827,784,827,784,826.9,784L826.9,784z M817.2,772.3l2.2-2.6c1-1.4,3-1.7,4.5-0.7c0.1,0.1,0.2,0.1,0.3,0.2l3.7,3.1
	c1.4,1,1.7,3,0.6,4.4c-0.1,0.1-0.2,0.2-0.3,0.3l-2.2,2.6L817.2,772.3z"/>
<path id="_Path_64" class="st0" d="M248.1,767.2l-1.4-1.7c-0.3-0.3-0.8-0.4-1.2-0.1c0,0,0,0,0,0l-12.8,10.9
	c-0.3,0.3-0.4,0.8-0.1,1.2c0,0,0,0,0,0l1.1,1.3c0.3,0.3,0.8,0.4,1.2,0.1c0,0,0,0,0,0l8.4-7.1l-3.4,5.8c-0.2,0.3-0.2,0.7,0.1,1
	l0.8,0.9c0.2,0.3,0.6,0.4,0.9,0.2l6.2-2.4l-8.4,7.1c-0.3,0.3-0.4,0.8-0.1,1.2c0,0,0,0,0,0l1.1,1.3c0.1,0.2,0.3,0.3,0.6,0.3h0.1
	c0.2,0,0.4-0.1,0.5-0.2l12.8-10.9c0.3-0.3,0.4-0.8,0.1-1.2c0,0,0,0,0,0l-1.4-1.7c-0.2-0.3-0.6-0.4-0.9-0.2l-8.8,3.4l4.7-8.2
	C248.4,767.9,248.4,767.4,248.1,767.2z"/>
<path id="_Compound_Path_21" class="st0" d="M197.5,727.4l3.8,6.2c0.8,1.4,2,2.4,3.5,2.9l0,0c0.4,0.1,0.8,0.2,1.1,0.2
	c1.1,0,2.1-0.3,3-0.9c1.4-0.8,2.2-2.3,2.3-3.9c1.3,0.5,2.8,0.3,4-0.5c1.3-0.7,2.2-1.9,2.5-3.3c0.2-1.6-0.1-3.1-1-4.4l-3.6-5.8
	c-0.2-0.4-0.7-0.5-1.1-0.3c0,0,0,0,0,0l-14.3,8.8C197.4,726.5,197.3,727,197.5,727.4C197.5,727.4,197.5,727.4,197.5,727.4z
	 M211.7,721.9l2.1,3.6c0.7,0.8,0.6,2-0.2,2.7c-0.1,0.1-0.2,0.1-0.3,0.2c-0.5,0.3-1,0.4-1.6,0.2c-0.5-0.2-1-0.6-1.3-1.1l-2.2-3.6
	L211.7,721.9z M205.4,725.8l2.4,4c0.7,0.9,0.5,2.1-0.4,2.8c-0.1,0.1-0.1,0.1-0.2,0.1c-0.9,0.6-2.1,0.4-2.7-0.4
	c-0.1-0.1-0.2-0.3-0.2-0.4l-2.4-4L205.4,725.8z"/>
<path id="_Compound_Path_22" class="st0" d="M891.6,390.4c0.2-0.1,0.3-0.3,0.4-0.5l0.4-1.7c0.1-0.4-0.1-0.9-0.6-1c0,0,0,0,0,0
	l-9.7-2.5c-1.3-0.4-2.8-0.3-4.1,0.1l-0.2,0.1c-3.1,1.2-4.6,4.8-3.4,7.9c0.9,2.3,3.1,3.8,5.6,3.8c0.8,0,1.5-0.1,2.2-0.4l0.2-0.1
	c2.1-0.9,3.6-2.9,3.8-5.2c0-0.6,0-1.1-0.1-1.7l4.7,1.2C891.2,390.6,891.4,390.5,891.6,390.4z M883,391.4c-0.3,0.6-0.8,1.1-1.5,1.4
	l-0.6,0.2c-0.3,0.1-0.7,0.2-1.1,0.2c-1.1,0-2-0.6-2.4-1.6c-0.5-1.4,0.2-2.9,1.5-3.4c0,0,0,0,0,0l0.6-0.2l0,0
	c0.3-0.1,0.7-0.2,1.1-0.2c1.1,0,2,0.6,2.4,1.6C883.3,390,883.3,390.8,883,391.4L883,391.4z"/>
<path id="_Compound_Path_23" class="st0" d="M784.1,825.7l-1.2-3.1l4.9-4.3l2.9,1.7c0.3,0.2,0.7,0.1,0.9-0.1l1.5-1.3
	c0.3-0.3,0.4-0.8,0.1-1.2c-0.1-0.1-0.1-0.1-0.2-0.2l-15.5-8.7c-0.3-0.2-0.7-0.1-0.9,0.1l-1.7,1.5c-0.3,0.2-0.4,0.6-0.2,0.9l6.5,16.6
	c0.1,0.2,0.3,0.4,0.6,0.5h0.2c0.2,0,0.4-0.1,0.5-0.2l1.5-1.3C784.1,826.3,784.2,826,784.1,825.7z M781.6,819.2l-2.4-5.9l5.5,3.2
	L781.6,819.2z"/>
<path id="_Path_65" class="st0" d="M223.8,322.3l2.1,1.4c0.1,0.1,0.3,0.1,0.5,0.1h0.1c0.2,0,0.4-0.2,0.5-0.4l1.4-2.1
	c0.3-0.4,0.2-0.9-0.2-1.1c0,0,0,0,0,0l-2.1-1.4c-0.4-0.3-0.9-0.2-1.1,0.2c0,0,0,0,0,0l-1.4,2.1C223.3,321.5,223.4,322,223.8,322.3z"/>
<path id="_Path_66" class="st0" d="M188.4,676.3c0.2,0.4,0.6,0.6,1.1,0.5c0,0,0,0,0,0l1.7-0.7c0.4-0.2,0.6-0.6,0.5-1.1c0,0,0,0,0,0
	l-3.6-8.8c-0.2-0.4-0.6-0.6-1.1-0.5c0,0,0,0,0,0l-1.7,0.7c-0.4,0.2-0.6,0.6-0.5,1.1c0,0,0,0,0,0l1.1,2.8l-10.6,4.3l-1.1-2.8
	c-0.2-0.4-0.6-0.6-1.1-0.5c0,0,0,0,0,0l-1.7,0.7c-0.4,0.2-0.6,0.6-0.5,1.1c0,0,0,0,0,0l3.6,8.8c0.2,0.4,0.6,0.6,1.1,0.5c0,0,0,0,0,0
	l1.7-0.7c0.4-0.2,0.6-0.6,0.5-1.1c0,0,0,0,0,0l-1.1-2.8l10.6-4.4L188.4,676.3z"/>
<path id="_Path_67" class="st0" d="M394.6,877.5c0.4,0.2,0.9,0,1.1-0.4c0,0,0,0,0,0l0.7-1.7c0.2-0.4,0-0.9-0.4-1.1c0,0,0,0,0,0
	l-8.9-3.7c-0.4-0.2-0.9,0-1.1,0.4c0,0,0,0,0,0l-0.7,1.7c-0.2,0.4,0,0.9,0.4,1.1c0,0,0,0,0,0l2.8,1.2l-4.4,10.6l-2.8-1.2
	c-0.4-0.2-0.9,0-1.1,0.4c0,0,0,0,0,0l-0.7,1.7c-0.2,0.4,0,0.9,0.4,1.1c0,0,0,0,0,0l8.8,3.6c0.4,0.2,0.9,0,1.1-0.4c0,0,0,0,0,0
	l0.7-1.7c0.2-0.4,0-0.9-0.4-1.1c0,0,0,0,0,0l-2.8-1.2l4.4-10.6L394.6,877.5z"/>
<path id="_Compound_Path_24" class="st0" d="M176.5,393.3l0.2,0.1c2.1,0.9,4.6,0.4,6.3-1.1c0.4-0.4,0.8-0.8,1.1-1.3l2.6,4.1
	c0.1,0.2,0.3,0.3,0.5,0.4h0.2c0.2,0,0.3,0,0.4-0.1l1.5-0.9c0.4-0.2,0.5-0.7,0.3-1.1l-5.3-8.5c-0.7-1.2-1.8-2.2-3.1-2.7l0,0l-0.2-0.1
	c-3.1-1.3-6.6,0.2-7.9,3.3C171.9,388.5,173.4,392.1,176.5,393.3L176.5,393.3L176.5,393.3z M176,386.6c0.4-1,1.4-1.6,2.4-1.6
	c0.4,0,0.7,0.1,1.1,0.2l0.6,0.2c1.4,0.5,2.1,2,1.6,3.4c0,0,0,0,0,0.1l0,0c-0.2,0.6-0.7,1.1-1.3,1.4c-0.7,0.3-1.5,0.3-2.1,0l-0.6-0.2
	c-0.7-0.3-1.2-0.8-1.5-1.5C175.8,388,175.8,387.3,176,386.6z"/>
<path id="_Path_68" class="st0" d="M281,826.4c0.3,0.3,0.9,0.3,1.2-0.1c0,0,0,0,0,0l1.7-2c0.3-0.3,0.3-0.9-0.1-1.2c0,0,0,0,0,0
	l-2-1.6c-0.3-0.3-0.9-0.3-1.2,0.1c0,0,0,0,0,0l-1.7,2c-0.3,0.3-0.3,0.9,0.1,1.2c0,0,0,0,0,0L281,826.4z"/>
<path id="_Compound_Path_25" class="st0" d="M342.4,854L342.4,854c1.7-2.8,0.9-5.7-2.2-7.5l-5.8-3.6c-0.4-0.2-0.9-0.1-1.1,0.3
	c0,0,0,0,0,0l-8.7,14.4c-0.2,0.4-0.1,0.9,0.3,1.1c0,0,0,0,0,0l6.2,3.8c1,0.7,2.3,1.1,3.5,1.1c2.9-0.1,5.1-2.6,5-5.5
	c0-0.6-0.2-1.1-0.4-1.7C340.5,856.1,341.7,855.3,342.4,854z M335.8,858.9L335.8,858.9c-0.2,0.5-0.7,0.8-1.2,1
	c-0.6,0.1-1.2,0-1.7-0.4l-4-2.4l2.1-3.5l4,2.4c0.5,0.3,0.9,0.8,1.1,1.4C336.2,857.9,336.1,858.4,335.8,858.9L335.8,858.9z
	 M339.3,852.3c-0.5,0.9-1.7,1.2-2.7,0.7c-0.1-0.1-0.2-0.1-0.2-0.2l-3.6-2.2l2-3.3l3.6,2.2c1,0.4,1.5,1.5,1.1,2.5
	C339.4,852.1,339.4,852.2,339.3,852.3L339.3,852.3z"/>
<path id="_Path_69" class="st0" d="M339.6,213.5c0.1,0.4,0.4,0.7,0.8,0.7h0.1l1.7-0.3c0.4-0.1,0.7-0.5,0.7-0.9c0,0,0,0,0-0.1
	l-2.8-15.2c0-0.1-0.1-0.2-0.1-0.3l-1.1-1.8c-0.2-0.4-0.7-0.5-1.1-0.3c0,0,0,0,0,0l-8.8,5.3c-0.4,0.2-0.5,0.7-0.3,1.1c0,0,0,0,0,0
	l2.3,3.8c0.2,0.4,0.7,0.5,1.1,0.3c0,0,0,0,0,0l1.6-0.9c0.4-0.2,0.5-0.7,0.3-1.1c0,0,0,0,0,0l-1.1-1.8l4.2-2.5L339.6,213.5z"/>
<path id="_Compound_Path_26" class="st0" d="M885.3,663.4c-0.9-0.4-1.9-0.6-2.9-0.6c-2.7,0-4.8,1.6-6,4.5c-1.6,4-0.2,7.4,3.8,9
	l4.9,2c0.9,0.4,1.9,0.6,2.9,0.6c2.6,0,4.8-1.6,6-4.5c1.6-4,0.2-7.4-3.8-9L885.3,663.4z M890.7,673.1L890.7,673.1
	c-0.4,1.3-1.6,2.2-3,2.2c-0.5,0-0.9-0.1-1.4-0.3l-4.9-2c-1.7-0.6-2.5-2.4-1.9-4.1c0-0.1,0.1-0.2,0.1-0.3c0.3-0.9,1-1.6,1.8-2
	c0.8-0.3,1.7-0.3,2.5,0l4.9,2c1.7,0.6,2.6,2.4,2,4C890.8,672.8,890.8,672.9,890.7,673.1L890.7,673.1z"/>
<path id="_Path_70" class="st0" d="M265.5,254.9c0.2,0.4,0.7,0.5,1.1,0.3c0,0,0.1-0.1,0.1-0.1l1.3-1.3c0.3-0.3,0.3-0.7,0.1-1
	c-0.1-0.2-0.2-0.5-0.3-0.8c-0.1-0.5,0.1-1,0.5-1.3c0.7-0.6,1.8-0.6,2.4,0.1c0,0.1,0.1,0.1,0.1,0.2c0.5,0.5,0.7,1.3,0.4,2
	c-0.2,0.3-0.1,0.7,0.1,0.9l1.2,1.2c0.3,0.3,0.7,0.3,1,0.2c0.4-0.2,0.8-0.3,1.2-0.3c0.8,0,1.5,0.4,2.1,0.9c0.6,0.6,0.9,1.4,0.9,2.2
	c0,0.7-0.3,1.3-0.8,1.7c-0.9,0.9-2.4,0.9-3.4,0.1c-0.3-0.2-0.8-0.2-1,0.1l-1.3,1.3c-0.3,0.3-0.3,0.8,0,1.2c0,0,0.1,0.1,0.1,0.1
	c1,0.8,2.2,1.3,3.5,1.3h0.2c1.7,0,3.2-0.7,4.4-1.9c1.2-1.1,1.9-2.6,1.9-4.2c-0.1-1.6-0.7-3.1-1.8-4.2c-1.2-1.3-2.9-1.9-4.7-1.8
	c0-1.2-0.5-2.3-1.3-3.2c-2-2-5.2-2.1-7.3-0.2C264.6,250.1,264.2,252.8,265.5,254.9L265.5,254.9z"/>
<path id="_Path_71" class="st0" d="M754,646.8c0.8,0,1.4-0.6,1.4-1.4v-12h3.3c0.8,0,1.4-0.6,1.4-1.4c0-0.8-0.6-1.4-1.4-1.4
	c0,0,0,0,0,0h-9.2c-0.8,0-1.4,0.6-1.4,1.4c0,0.8,0.6,1.4,1.4,1.4c0,0,0,0,0,0h3.3v12C752.6,646.2,753.2,646.8,754,646.8z"/>
<path id="_Path_72" class="st0" d="M725.9,418.2c-0.8,0-1.4,0.6-1.4,1.4V433c0,0.8,0.6,1.4,1.4,1.4h6.8c0.8,0,1.4-0.6,1.4-1.4
	c0-0.8-0.6-1.4-1.4-1.4c0,0,0,0,0,0h-5.4v-12C727.2,418.9,726.6,418.2,725.9,418.2C725.9,418.2,725.9,418.2,725.9,418.2z"/>
<path id="_Compound_Path_27" class="st0" d="M640.8,356.4h-8c-1.9,0-3.7,1-4.7,2.6l0,0.1l-26.2,46.1L577.3,361
	c-1.3-2.7-3.9-4.4-6.8-4.6h-7.7c-3.1,0-5.6,2.5-5.6,5.6v71.8c0,3.1,2.5,5.6,5.6,5.6h2.1c3.1,0,5.6-2.5,5.6-5.6v-36.4l20,37.9
	c1.2,2.6,4.3,3.7,6.9,2.5c0.9-0.4,1.6-1,2.1-1.8c0,0,0-0.1,0.1-0.1l22.8-40.3v38.2c0,3.1,2.5,5.6,5.6,5.6h13c3.1,0,5.6-2.5,5.6-5.6
	V362C646.4,358.9,643.9,356.4,640.8,356.4z M595.6,432.5c-0.2,0.1-0.4,0.1-0.6,0.1c-0.5,0-1-0.3-1.2-0.8l-30.3-59.4
	c-0.3-0.7-0.1-1.5,0.6-1.8c0.7-0.3,1.5-0.1,1.8,0.6l30.3,59.4C596.5,431.3,596.3,432.1,595.6,432.5
	C595.6,432.5,595.6,432.5,595.6,432.5L595.6,432.5z M629.9,432.7c0,0.8-0.6,1.4-1.4,1.4c-0.8,0-1.4-0.6-1.4-1.4v-59.9
	c0-0.8,0.6-1.4,1.4-1.4c0.8,0,1.4,0.6,1.4,1.4V432.7z"/>
<path id="_Compound_Path_28" class="st0" d="M475.3,356.4c-3.1,0-5.6,2.5-5.6,5.6v71.8c0,3.1,2.5,5.6,5.6,5.6h35
	c20.8,0,31.7-12,31.7-23.9c0-10.7-9.5-18-19.3-20.9c7.5-5.1,11.3-11.3,11.3-18.3c0-11.5-11.3-19.9-27-19.9H475.3z M477.9,432.7
	c-0.1,0.9-0.9,1.6-1.8,1.5c-0.8-0.1-1.5-0.7-1.5-1.5V363c-0.1-0.9,0.6-1.7,1.5-1.8c0.9-0.1,1.7,0.6,1.8,1.5c0,0.1,0,0.2,0,0.3V432.7
	z M505.6,429.2h-11.8v-27h8.3c10.6,0,14.4,8.3,14.4,15.5S512.4,429.2,505.6,429.2z M525.1,417.5c0,6.9-2.9,12.1-8.1,14
	c-0.7,0.4-1.6,0.1-2-0.6c0-0.1-0.1-0.2-0.1-0.3c-0.2-0.7,0.1-1.4,0.8-1.7c2.2-0.8,3.9-2.4,4.9-4.5l0,0c1.1-2.2,1.6-4.5,1.5-6.9
	c0.1-3.4-0.7-6.7-2.3-9.7c-1.1-1.9-2.7-3.6-4.6-4.7c-0.6-0.4-0.8-1.2-0.5-1.8l0.1-0.1c0.5-0.7,1.4-0.9,2.1-0.5
	C522.1,403.7,525.1,410,525.1,417.5z M510.5,365.3L510.5,365.3c0.5-0.7,1.3-0.9,2-0.6c4.4,2.5,6.8,7.5,6.8,14.1
	c0,7.9-3.7,13.6-10.1,15.6c-0.3,0-0.5,0.1-0.8,0.1c-0.2,0-0.5-0.1-0.6-0.2c-0.3-0.2-0.5-0.5-0.5-0.8c-0.2-0.7,0.2-1.4,0.8-1.7
	c2.9-0.9,5.3-2.9,6.6-5.6c2.3-4.9,2.2-10.6-0.2-15.5c-0.8-1.5-2.1-2.8-3.6-3.6C510.4,366.7,510.2,365.9,510.5,365.3L510.5,365.3z
	 M510.8,378.9c0,9.7-6.9,13.1-13.4,13.1h-3.6v-25.5h5.6C506.5,366.5,510.8,371.2,510.8,378.9L510.8,378.9z"/>
<path id="_Compound_Path_29" class="st0" d="M444.2,439.3c3.1,0,5.6-2.5,5.6-5.6V362c0-3.1-2.5-5.6-5.6-5.6h-12.9
	c-3.1,0-5.6,2.5-5.6,5.6v71.8c0,3.1,2.5,5.6,5.6,5.6H444.2z M430.3,432.7V363c0-0.8,0.6-1.4,1.4-1.4c0.8,0,1.4,0.6,1.4,1.4v69.7
	c0,0.8-0.6,1.4-1.4,1.4C430.9,434.1,430.3,433.5,430.3,432.7z"/>
<path id="_Compound_Path_30" class="st0" d="M665.4,645.7c0.1-0.2,0.2-0.3,0.2-0.5c0-0.5-0.4-0.9-0.9-0.9c0,0,0,0,0,0
	c-7.9,0-15.5,2.8-21.5,7.9c-4.7,4-7.8,9.2-8,15c-0.4,0.4-0.8,0.9-1.1,1.5c-0.5,1.1-5.7,5.5-10.1,6.9c-0.3,0.1-0.6,0.2-0.9,0.2
	c-0.5,0.1-1,0.2-1.5,0.2c-2.4,0-2.9-2.4-2.8-4.5c0.1-4,1.4-8.9,4-14.4c1.3-2.8,2.8-5.5,4.4-8.1c0.6-0.9,1.2-1.9,1.8-2.9
	c0.3-0.4,0.2-1-0.2-1.2c-0.3-0.2-0.7-0.2-1,0c-1.5,1.2-3.1,2.1-4.8,2.9c-0.6,0.2-1.2,0.3-1.8,0.2c-0.6-0.1-1.1-0.5-1.4-1
	c-0.1-0.2-0.4-0.4-0.7-0.4c-0.3,0-0.6,0.1-0.7,0.3l-0.5,0.6c-0.9,1.1-2.5,2.9-4.1,5.1c-3.6,4.8-7.8,11.6-7.9,17.4c0,0.2,0,0.3,0,0.5
	c-3.5,2.5-8.8,5.6-12.6,6.3c-0.5,0.1-1,0.2-1.5,0.2c-0.5,0-1-0.2-1.3-0.6l0,0c-1.8-1.9-2.2-7.4-2.2-14.1l2.7-4.4
	c1.6-2.5,3.1-5,4.5-7.2c8.7-14.1,13.8-23.8,14-35.3v-0.7c0.1-3.4,0.1-6.1-0.5-8.1c-0.7-2.3-2.4-3.5-5.1-3.5
	c-4.5-0.1-19.7,12.1-26.8,32.9c-1.5,4.2-2.5,8.5-3.1,12.9c-0.4,0-0.7,0-1.1,0c-4.3,0-8.6,0.9-12.5,2.7c-2.6,1.1-5,2.6-7.1,4.3
	c-0.7,0.5-1.3,1.1-2,1.7c-4.8,4.5-7.6,10-7.7,15.5c0,1,0,2,0.2,2.9c-0.9,1.4-7,6.4-11.4,7.1l-0.5,0h-0.5c-1.9,0-2.9-1.5-2.8-4.5
	c0.2-3.5,0.9-7,2.3-10.3c1.9-4.9,4.4-9.6,7.2-14l0.7-1.1c0.2-0.4,0.2-0.8-0.1-1.1c-0.1-0.1-0.1-0.1-0.2-0.1
	c-0.3-0.2-0.7-0.1-0.9,0.1l-0.3,0.2c-1.7,1.2-4.5,3.2-6.3,2.8c-0.6-0.1-1.1-0.5-1.4-1c-0.2-0.2-0.4-0.4-0.7-0.4
	c-0.3,0-0.6,0.1-0.7,0.3l-0.5,0.6c-0.6,0.7-1.5,1.7-2.5,3c-1.7-2.9-4.8-4.4-9.4-4.5c-1.3,0-2.6,0.1-3.9,0.2
	c-5.7,0.9-11.2,3.2-15.7,6.8c-2,1.6-3.8,3.4-5.3,5.5c-2.6,3.3-4.1,7.4-4.3,11.7c0,1.2,0.1,2.4,0.3,3.6c-1.6,3.1-4.9,6.8-11.5,7.8
	c-1.3,0.2-2.6,0.3-3.9,0.2c-6.6-0.1-9.5-6.2-12.8-13.3c-1.1-2.3-2.2-4.7-3.5-6.9c3.3-1.5,6.5-3.3,9.5-5.4c13-9.2,15-18.4,15.1-23.1
	c0.1-8-3.2-14-10-17.8c-6.2-3.5-13.7-4.3-19-4.4c-3.3,0-6.5,0-9.5,0.2c-3.9,0.2-7.7,0.6-11.6,1.3c-10,1.8-18,5.2-23.7,10.1
	c-6.8,5.9-8.7,12.7-8.7,15.8c-0.3,4.6,2,9,6,11.5c1.9,1.2,4.1,2,6.3,2.4c0.5,0.1,0.9-0.2,1-0.7c0-0.1,0-0.2,0-0.3
	c-0.1-0.9-0.1-1.9,0-2.8c0-0.6,0.1-1.3,0.1-2.2c0.3-19.1,19-32.2,35.8-32.1h0.4c10.2,0.2,14.1,5.5,13.9,19
	c-0.1,8.5-5.1,16.6-10.4,22.3c-2.6-2.4-5.8-3.8-9.3-4.2c-0.6-0.1-1.2-0.1-1.8-0.1c-5-0.1-8.9,3-9,7.1c-0.1,3.6,2.4,6.3,6.3,7.2
	c0.8,0.2,1.6,0.3,2.5,0.3c2.8,0,5.6-0.4,8.3-1.2c0.5,2,1,4.1,1.5,6.3c2.1,9.4,4.5,19.9,12.2,23.3c1.7,0.7,3.5,1.1,5.4,1.1
	c6.4,0.1,11.1-1.9,14.6-4.8c0.6-0.5,1.2-1.1,1.7-1.6c2.7-3,4.7-6.5,5.7-10.4c0.5,1,1.2,1.9,1.9,2.7c2.3,2.4,5.4,3.8,8.7,3.8
	c0.4,0,0.7,0,1.1,0c1.9-0.2,3.7-0.6,5.4-1.3c4.2-1.7,8-4.2,11.1-7.5c1.3,4.2,5.1,7.1,9.5,7.3c0.4,0,0.8,0.1,1.2,0.1h0.5
	c0.6,0,1.2-0.1,1.7-0.2c1.8-0.3,3.5-0.9,5.1-1.7c4-2,7.6-4.8,10.5-8.3c0.6,1.3,1.3,2.4,2.3,3.5c2.3,2.4,5.4,3.8,8.7,3.8h0.1
	c3.4-0.1,6.8-1.1,9.8-2.9c4.1-2.2,7.6-5.2,10.2-9c1.9,4.4,5,8,10,8.8c0.7,0.1,1.4,0.2,2.1,0.2c2.5,0,5.1-0.4,7.5-1.2
	c4.3-1.6,8.1-4.2,11.1-7.5c1.6,4.7,5.3,7.4,10.7,7.5h0.4c2.7-0.2,5.3-0.9,7.6-2.2c4.1-2.2,7.7-5.2,10.5-8.8c1.5,4.4,5.1,7.8,9.7,9
	c1.1,0.3,2.3,0.5,3.5,0.5c6.9,0.1,13.7-2.3,19-6.7c2.1,3.5,3.2,7.5,2.9,11.5c-0.3,19.2-23.2,27.4-45.8,27
	c-9.3-0.2-21.4-2.2-34.1-4.4c-15.6-2.7-33.2-5.7-50-6c-3.2,0-6.8,0-10.7,0.1c-1.5,0-3.2,0.1-4.8,0.2c-12.4,0.6-24.8,2-37.1,4.3
	c-9.4,1.8-18.7,4-27.8,6.8c-14.6,4.4-28.7,10.2-42.2,17.2c-0.4,0.2-0.5,0.6-0.4,1c0.1,0.4,0.4,0.7,0.9,0.7
	c8.9-0.1,17.5,3.1,17.9,6.8c0.1,0.4,0.4,0.8,0.9,0.8c0.1,0,0.3,0,0.4-0.1c34-16.2,67.7-24.5,97.5-24c21.2,0.3,35.1,1.6,48.5,2.9
	c12.5,1.1,24.2,2.2,40.8,2.5c17,0.3,30.1-3.7,39.1-11.9c6.8-6,10.8-14.6,11.1-23.7c0.3-5.1-1.2-10.1-4.3-14.1
	c3.7-3.9,6-8.6,6.1-12.9C677,651.1,672.9,646,665.4,645.7z M588.4,654.6v-2.7c0.1-3.3,0.7-6.6,1.8-9.8c3.1-9.9,9.7-19.7,14.1-26
	c0.8,5.5-4.1,17.4-10.8,30.3c-1.6,3.2-3.4,6.4-5.2,9.6L588.4,654.6z M438.7,670.1c-0.6,0-1.2-0.1-1.8-0.2c-2.8-0.5-4.3-2.1-4.3-4.5
	c0-2.2,1.7-4.8,6.2-4.7c0.3,0,0.6,0,0.9,0.1c2.6,0.5,4.3,2.6,5.6,5.8C442.6,668.9,440.1,670.2,438.7,670.1z M515.5,677.1
	c0,0.3,0,0.6,0,0.8c-2.4,2.5-6.3,5.7-9.5,5.7c-0.8,0-3.1,0-3.1-5.1c0.2-11.2,7.8-22.9,14.8-22.8c1.8,0,3.5,0.7,4.7,2
	c0.5,0.5,0.8,1.1,1.2,1.7C520,664.2,515.6,671.2,515.5,677.1L515.5,677.1z M574.6,671.4c-1.3,1.8-7,7.9-11.3,7.8l0,0
	c-0.6,0-1.3-0.2-1.8-0.6c-0.7-0.6-1.3-1.9-1.3-4.5c0-1.6,0.2-3.3,0.5-4.9c0.2-0.8,0.4-1.7,0.6-2.5c2.2-7.7,7.2-14.3,12.3-15.3
	c-0.2,2-0.3,4.1-0.4,6.2C573.1,662.3,573.6,666.9,574.6,671.4L574.6,671.4z M655.8,673.7c-1.6,0-3-0.7-4-1.9
	c-1.1-1.5-1.7-3.3-1.5-5.2c0-2.5,0.4-5,1.2-7.4c1.6-5.2,4.6-9.5,8.2-11.6c-2.2,1.9-3.1,5.1-3.2,8c-0.1,7.1,3.5,10.7,7,14.2
	c0.5,0.5,1.1,1.1,1.6,1.6C662.1,672.8,659,673.6,655.8,673.7z M667.9,669.7c-0.7-0.7-1.4-1.3-2-2c-3.6-3.5-6.8-6.5-6.7-12.1
	c0.1-5.2,1.6-7,5.6-7c6.2,0.1,9.6,4.2,9.5,11.5C674.2,663.8,671.5,667.2,667.9,669.7L667.9,669.7z"/>
<path id="_Path_73" class="st0" d="M418.7,693.4c0.6-5.1,1.4-10.2,2.5-15.3c2.4-10.9,5.8-21.6,10-32c1.2-2.9,2.4-5.9,3.8-8.9
	c0.8-1.8,1.6-3.5,2.4-5.3c0.2-0.4,0.1-0.9-0.3-1.1c-0.4-0.2-0.9-0.1-1.2,0.2c-10,13-18.9,26.9-26.5,41.5c-5,9.6-9,19.8-11.8,30.3
	c-0.1,0.5,0.2,1,0.6,1.1c0.1,0,0.1,0,0.2,0c0.2,0,0.4-0.1,0.6-0.2l0.5-0.4c3.9-3.2,13-10.7,18-9.1c0.3,0.1,0.5,0,0.8-0.1
	C418.6,693.9,418.7,693.7,418.7,693.4z"/>
<path id="_Path_74" class="st0" d="M631.6,636.2c2,0,3.9-0.5,5.6-1.6c2.9-1.7,5-4.6,5.1-7.6c0.1-4.3-1.8-9.4-10.9-9.5
	c-0.2,0-0.5,0.1-0.6,0.3c-0.2,0.2-0.3,0.4-0.2,0.6c0,0.4-1.1,1.4-1.8,2.1c-1.9,1.8-4.4,4.2-4.5,7.6c-0.1,1.3,0.1,2.7,0.5,3.9
	C625.6,634.8,627.9,636.2,631.6,636.2z"/>
<path id="_Path_75" class="st0" d="M523.6,278.6c-0.4-0.3-0.9-0.5-1.3-0.3l-10.1,3.2c-0.7,0.2-1.1,1-0.9,1.7c0.2,0.7,1,1.1,1.7,0.9
	l7.7-2.5l-0.5,1.9c-0.1,0.5,0,1,0.4,1.3c0.3,0.2,0.6,0.4,0.9,0.4c0.1,0,0.3,0,0.4-0.1l7.9-2.5c0.7-0.3,1.1-1,0.8-1.7
	c-0.2-0.7-1-1.1-1.7-0.9l-5.5,1.8l0.5-1.9C524.2,279.5,524,279,523.6,278.6z"/>
<path id="_Path_76" class="st0" d="M550.9,278.6c-0.4-0.3-0.9-0.5-1.3-0.3l-7.9,2.5c-0.7,0.2-1.1,1-0.9,1.7c0.2,0.7,1,1.1,1.7,0.9
	l5.5-1.8l-0.5,1.9c-0.1,0.5,0,1,0.4,1.3c0.3,0.2,0.6,0.4,0.9,0.4c0.1,0,0.3,0,0.4-0.1l10.1-3.2c0.7-0.2,1.1-1,0.9-1.7
	c-0.2-0.7-1-1.1-1.7-0.9l0,0l-7.7,2.5l0.5-1.9C551.4,279.5,551.2,279,550.9,278.6z"/>
<path id="_Compound_Path_31" class="st0" d="M507.7,305.6c0,4.2,4.2,7.6,11.4,9.6v4h-2.2c-0.8,0-1.4,0.6-1.4,1.4
	c0,0.8,0.6,1.4,1.4,1.4h7.1c0.8,0,1.4-0.6,1.4-1.4c0-0.8-0.6-1.4-1.4-1.4c0,0,0,0,0,0h-2.2v-3.3c3.1,0.7,6.2,1.1,9.4,1.3
	c-1.8,7.1-3.8,9.8-4.8,10.8c-0.5,0.5-0.5,1.4,0,1.9s1.4,0.5,1.9,0c0.4-0.4,0.8-0.9,1.2-1.4h4.8v4.4c0,0.8,0.6,1.4,1.4,1.4
	c0.8,0,1.4-0.6,1.4-1.4v-4.3h4.8c0.4,0.5,0.8,1,1.2,1.4c0.5,0.5,1.4,0.5,1.9,0s0.5-1.4,0-1.9c-0.9-0.9-3-3.6-4.7-10.6
	c2.3-0.1,4.5-0.2,6.6-0.5v3.8c0,0.8,0.6,1.4,1.4,1.4c0.8,0,1.4-0.6,1.4-1.4v-4.2c2.2-0.3,4.3-0.7,6.2-1.2l2.2,5.8
	c0.3,0.7,1.1,1.1,1.8,0.8c0.7-0.3,1.1-1.1,0.8-1.8l-2.1-5.6c2.8-0.8,5.5-2,7.8-3.7c0.6-0.5,0.7-1.3,0.3-1.9s-1.3-0.7-1.9-0.3
	c-2.2,1.5-4.6,2.6-7.2,3.3l-3.1-8.3c1.2-1.4,2.1-3,2.7-4.7c1.9,0.5,3.8,1.3,5.5,2.2c0.7,0.3,1.5,0,1.8-0.6c0.3-0.6,0.1-1.4-0.5-1.8
	c-2-1-4-1.8-6.2-2.4c0-0.3,0.1-0.7,0-1c0-2.4-1.2-6.4-9.6-6.4c-0.8,0-1.4,0.6-1.4,1.4v3.9c-3.2-0.3-6.4-0.5-9.6-0.5
	c-0.1-2.8-0.2-5.9-0.2-9.2l0,0v-2.8c0,1,0,1.9,0,2.8c1.6-0.8,2.2-2.6,1.5-4.2c-0.8-1.6-2.6-2.2-4.2-1.5c-1.6,0.8-2.2,2.6-1.5,4.2
	c0.3,0.6,0.8,1.1,1.5,1.5c0-0.9,0-1.9,0-2.8v2.8l0,0c0,3.3-0.1,6.4-0.2,9.3c-4.2,0.1-8.3,0.6-12.3,1.5v-3.5h2.2
	c0.8,0,1.4-0.6,1.4-1.4c0-0.8-0.6-1.4-1.4-1.4c0,0,0,0,0,0h-7.1c-0.8,0-1.4,0.6-1.4,1.4c0,0.8,0.6,1.4,1.4,1.4c0,0,0,0,0,0h2.2v4.2
	C511.9,298,507.7,301.4,507.7,305.6z M549.7,291.8c3.7,0.2,5.5,1.5,5.5,3.6c0,0.1,0,0.2,0,0.2c-1.7-0.4-3.6-0.8-5.5-1L549.7,291.8z
	 M549.7,297.5c1.7,0.3,3.3,0.6,4.9,0.9c-1.1,2.5-2.8,4.6-4.9,6.2V297.5z M549.7,307.6c0.3,0,0.6,0,0.8-0.2c0.7-0.4,1.3-0.9,1.9-1.4
	l2.6,6.8c-1.6,0.4-3.4,0.7-5.3,1L549.7,307.6z M546.9,297.1v17c-2.3,0.3-4.7,0.4-7.2,0.5c-1.2-6-1.9-12-2.2-18.1
	C540.7,296.6,543.8,296.8,546.9,297.1L546.9,297.1z M537.1,317.4h0.4c0.6,2.9,1.6,5.7,2.8,8.3h-3.2L537.1,317.4z M534.4,317.4v8.4
	h-3.2c1.2-2.7,2.2-5.5,2.8-8.4L534.4,317.4z M521.8,298.1c4-0.9,8.1-1.4,12.2-1.5c-0.3,6-1,12-2.2,17.9c-3.4-0.2-6.7-0.6-10-1.4
	V298.1z M519.1,298.8v13.6c-5.7-1.8-8.6-4.3-8.6-6.8S513.4,300.6,519.1,298.8L519.1,298.8z"/>
<path id="_Path_77" class="st0" d="M371.5,418.2c-0.8,0-1.4,0.6-1.4,1.4v8.9l-6.5-9.7c0-0.1-0.1-0.1-0.2-0.2l-0.1-0.1l-0.1-0.1
	l-0.1-0.1l-0.1-0.1h-0.1h-0.1c-0.2,0-0.4,0-0.5,0h-0.1H362c-0.2,0.1-0.3,0.2-0.5,0.3l-0.1,0.1l-0.1,0.1l-0.1,0.1l-0.1,0.1
	c0,0,0,0.1,0,0.1c0,0,0,0.1,0,0.1c0,0.1,0,0.2,0,0.3l0,0V433c0,0.8,0.6,1.4,1.4,1.4c0.8,0,1.4-0.6,1.4-1.4v-8.9l6.5,9.7
	c0.1,0.1,0.1,0.2,0.2,0.2l0.1,0.1l0.2,0.1h0.1l0.2,0.1h0.1c0.1,0,0.2,0,0.3,0l0,0c0.1,0,0.2,0,0.4,0h0.1c0.2-0.1,0.4-0.2,0.5-0.3
	l0.1-0.1l0.1-0.1l0.1-0.1l-0.1,0c0,0,0-0.1,0-0.1s0-0.1,0-0.1c0-0.1,0-0.2,0-0.3l0,0v-13.4C372.8,418.9,372.2,418.3,371.5,418.2z"/>
<path id="_Path_78" class="st0" d="M391.4,434.4c0.8,0,1.4-0.6,1.4-1.4v-12h3.3c0.8,0,1.4-0.6,1.4-1.4c0-0.8-0.6-1.4-1.4-1.4h-9.2
	c-0.8,0-1.4,0.6-1.4,1.4c0,0.8,0.6,1.4,1.4,1.4h3.3v12C390,433.7,390.6,434.3,391.4,434.4z"/>
<path id="_Path_79" class="st0" d="M338.3,431.6c-0.8,0-1.4,0.6-1.4,1.4c0,0.8,0.6,1.4,1.4,1.4h7.8c0.8,0,1.4-0.6,1.4-1.4
	c0-0.8-0.6-1.4-1.4-1.4h-2.5V421h2.5c0.8,0,1.4-0.6,1.4-1.4c0-0.8-0.6-1.4-1.4-1.4h-7.8c-0.8,0-1.4,0.6-1.4,1.4
	c0,0.8,0.6,1.4,1.4,1.4h2.5v10.6H338.3z"/>
<path id="_Path_80" class="st0" d="M676.8,433v-8.9l6.5,9.7c0.1,0.1,0.1,0.2,0.2,0.2l0.1,0.1l0.2,0.1h0.1l0.2,0.1h0.1
	c0.1,0,0.2,0,0.3,0l0,0c0.1,0,0.2,0,0.3,0h0.1c0.2-0.1,0.4-0.2,0.5-0.3l0.1-0.1l0.1-0.1l0.1-0.1l0.1-0.1c0,0,0-0.1,0-0.1
	s0-0.1,0-0.1c0-0.1,0-0.2,0-0.3v-13.3c0-0.8-0.6-1.4-1.4-1.4c-0.8,0-1.4,0.6-1.4,1.4c0,0,0,0,0,0v8.9l-6.5-9.7
	c-0.1-0.1-0.1-0.1-0.2-0.2l-0.1-0.1l-0.1-0.1l-0.1,0l-0.1-0.1h-0.1h-0.1h-0.2l0,0h-0.3h-0.1h-0.1c-0.2,0.1-0.3,0.2-0.5,0.3l-0.1,0.1
	l-0.1,0.1l-0.1,0.1l-0.1,0.1c0,0,0,0.1,0,0.1s0,0.1,0,0.1c0,0.1,0,0.2,0,0.3V433c0,0.8,0.6,1.4,1.4,1.4
	C676.2,434.4,676.8,433.7,676.8,433L676.8,433z"/>
<path id="_Path_81" class="st0" d="M704.4,434.4c0.8,0,1.4-0.6,1.4-1.4v-12h3.3c0.8,0,1.4-0.6,1.4-1.4c0-0.8-0.6-1.4-1.4-1.4h-9.3
	c-0.8,0-1.4,0.6-1.4,1.4c0,0.8,0.6,1.4,1.4,1.4h3.3v12C703.1,433.7,703.7,434.4,704.4,434.4C704.4,434.4,704.4,434.4,704.4,434.4z"/>
<path id="_Compound_Path_32" class="st0" d="M313,646.9h5.6c2.6,0,4.7-2.1,4.7-4.8c0-1.4-0.6-2.8-1.7-3.7c1.7-2,1.4-4.9-0.5-6.6
	c-0.8-0.7-1.9-1.1-3-1.1h-0.2h-0.2H313c-0.8,0-1.4,0.6-1.4,1.4v6.2c-0.1,0.3-0.1,0.6,0,0.9v6.3C311.6,646.3,312.2,646.9,313,646.9
	C313,646.9,313,646.9,313,646.9z M314.4,633.5h3.2h0.2h0.2c1.1,0,1.9,0.9,1.9,1.9s-0.9,1.9-1.9,1.9h-3.7V633.5z M314.4,640.2h4.2
	c1.1,0,2,0.9,2,2s-0.9,2-2,2h-4.2V640.2z"/>
<path id="_Compound_Path_33" class="st0" d="M348.2,635.5c0-2.6-2.1-4.7-4.8-4.8h-5.6c-0.8,0-1.4,0.6-1.4,1.4v13.4
	c0,0.8,0.6,1.4,1.4,1.4c0.8,0,1.4-0.6,1.4-1.4c0,0,0,0,0,0v-5.3h2.4l3.4,6c0.4,0.6,1.3,0.8,1.9,0.4c0.6-0.4,0.8-1.2,0.5-1.8
	l-2.7-4.7C346.7,639.6,348.2,637.7,348.2,635.5z M343.4,637.5h-4.3v-4h4.3c1.1,0,2,0.9,2,2S344.5,637.5,343.4,637.5z"/>
<path id="_Compound_Path_34" class="st0" d="M372.5,635.5c0-2.6-2.1-4.7-4.8-4.8h-5.7c-0.8,0-1.4,0.6-1.4,1.4v13.4
	c0,0.8,0.6,1.4,1.4,1.4h5.7c2.6,0,4.7-2.1,4.8-4.8V635.5z M369.8,642.1c0,1.1-0.9,2-2,2h-4.3v-10.6h4.3c1.1,0,2,0.9,2,2V642.1z"/>
<path id="_Path_82" class="st0" d="M704.6,633.4c1.5-0.2,2.8,0.8,3.2,2.2c0.2,0.7,1,1.1,1.7,0.9c0.7-0.2,1.1-0.9,0.9-1.6
	c-0.7-2.6-3.1-4.4-5.8-4.2c-3.6,0-5.9,2.1-5.9,5.5v5.2c0,3.4,2.3,5.5,5.9,5.5c2.7,0.2,5.2-1.6,5.8-4.2c0.2-0.7-0.2-1.5-0.9-1.7
	c-0.7-0.2-1.5,0.2-1.7,0.9c0,0,0,0.1,0,0.1c-0.4,1.4-1.7,2.3-3.2,2.2c-3.2,0-3.2-2-3.2-2.7v-5.2
	C701.5,635.5,701.5,633.4,704.6,633.4z"/>
<path id="_Path_83" class="st0" d="M729.2,644.1c-1.2,0.1-2.4-0.5-3-1.5c-0.3-0.7-1.2-0.9-1.8-0.6c-0.7,0.3-0.9,1.2-0.6,1.8
	c1.1,2,3.2,3.1,5.5,3c3.3,0,5.6-1.9,5.6-4.6c0-3.6-3.2-4.4-5.3-4.8c-2.4-0.5-3.1-0.9-3.1-2.1c0-1.4,1.5-1.9,2.8-1.9
	c1.9,0,2.5,0.8,2.9,1.5c0.3,0.7,1.2,1,1.8,0.6s1-1.2,0.6-1.8c-0.7-1.4-2.2-3-5.3-3s-5.5,1.9-5.5,4.6c0,3.6,3.1,4.3,5.2,4.8
	c2.5,0.6,3.2,0.9,3.2,2.2S730.6,644.1,729.2,644.1z"/>
<g id="_Group_">
	<path id="_Compound_Path_35" class="st0" d="M726.4,498.4L726.4,498.4l-92,1l6.1-10.4c0.4-0.7,0.2-1.5-0.5-1.9
		c-0.2-0.1-0.5-0.2-0.8-0.2l-52.8,4.3c-0.5,0-0.9,0.3-1.1,0.7l-7.1,13c-0.4,0.7-0.1,1.5,0.6,1.9c0.3,0.1,0.6,0.2,0.9,0.1l44-7.4
		l-5.8,9.3c-0.4,0.7-0.2,1.5,0.5,1.9c0.2,0.1,0.5,0.2,0.7,0.2h0.1l107.3-9.8c0.8,0,1.3-0.7,1.3-1.4S727.2,498.4,726.4,498.4
		L726.4,498.4z M621.7,508l5.9-9.5c0.3-0.5,0.3-1,0-1.5c-0.3-0.4-0.7-0.6-1.1-0.6h-0.2l-44.2,7.4l5.4-9.9l49.4-4l-6,10.2
		c-0.2,0.4-0.2,1,0,1.4c0.2,0.4,0.7,0.7,1.2,0.7l60.1-0.7L621.7,508z"/>
	<path id="_Compound_Path_36" class="st0" d="M491.7,558.1c-0.3-0.4-0.8-0.6-1.3-0.6l-44,7.3l5.8-9.3c0.3-0.4,0.3-1,0-1.5
		c-0.3-0.4-0.8-0.7-1.3-0.6l-107.3,9.8c-0.8,0-1.3,0.7-1.3,1.4s0.7,1.3,1.4,1.3l0,0l92-1l-6.1,10.4c-0.4,0.7-0.2,1.5,0.5,1.9
		c0.2,0.1,0.4,0.2,0.7,0.2h0.1l52.7-4.2c0.5,0,0.9-0.3,1.1-0.7l7.2-13.1C492,559.1,492,558.5,491.7,558.1z M482.6,570.6l-49.4,4
		l6-10.2c0.4-0.7,0.2-1.5-0.5-1.9c-0.2-0.1-0.5-0.2-0.7-0.2l0,0L378,563l70.4-6.5l-5.9,9.5c-0.4,0.6-0.2,1.5,0.4,1.9
		c0.3,0.2,0.6,0.2,1,0.2l44.2-7.4L482.6,570.6z"/>
	<path id="_Compound_Path_37" class="st0" d="M487.9,483.8c-1.6-1.3-3.8-1.2-5.3,0.1l-40.4,36l-4-21.2c-0.4-2.2-2.6-3.7-4.8-3.3
		c-1.2,0.2-2.2,1-2.8,2l-22.3,39.2c-1.1,2-0.4,4.5,1.5,5.6c2,1.1,4.5,0.4,5.6-1.5l0,0l16.8-29.5l3.3,17.3c0.4,2.2,2.6,3.7,4.8,3.3
		c0.7-0.1,1.4-0.5,2-1l27.2-24.2l-14.5,25.5c-1.1,2-0.4,4.5,1.5,5.6c2,1.1,4.5,0.4,5.6-1.5l26.9-47.2
		C489.8,487.3,489.4,485.1,487.9,483.8z M486.5,487.7l-26.9,47.2c-0.4,0.7-1.2,0.9-1.9,0.5s-0.9-1.2-0.5-1.9l22.7-40l-39.6,35.3
		c-0.6,0.5-1.4,0.5-1.9-0.1c-0.2-0.2-0.3-0.4-0.3-0.7l-4.7-24.7l-20.5,36c-0.2,0.4-0.7,0.7-1.2,0.7c-0.2,0-0.5-0.1-0.7-0.2
		c-0.7-0.4-0.9-1.2-0.5-1.9c0,0,0,0,0,0l22.3-39.2c0.4-0.7,1.2-0.9,1.9-0.5c0.4,0.2,0.6,0.5,0.7,0.9l4.9,26l44-39.2
		c0.6-0.5,1.4-0.4,1.9,0.1C486.6,486.6,486.7,487.2,486.5,487.7L486.5,487.7z"/>
	<path id="_Compound_Path_38" class="st0" d="M403.5,514.9c-2.4-4.5-6.7-7.6-11.7-8.4c-10.5-2.1-22.3,4.3-26.9,14.6
		c-2.4,5-2.4,10.7,0,15.7c2.4,4.5,6.6,7.6,11.6,8.5c1.3,0.3,2.7,0.4,4.1,0.4c9.8-0.2,18.7-6.1,22.8-15
		C405.8,525.6,405.8,519.8,403.5,514.9z M401,529.2c-3.5,8-11.3,13.3-20,13.5c-1.1,0-2.3-0.1-3.4-0.3c-4.2-0.7-7.9-3.3-10-7.1
		c-2.1-4.1-2.3-8.9-0.4-13.2c3.7-9,14.1-15,23.4-13.2c4.2,0.7,7.9,3.3,10,7.1C402.7,520.1,402.9,525,401,529.2z"/>
	<path id="_Compound_Path_39" class="st0" d="M584.7,531.2c-2-1.1-4.5-0.4-5.6,1.6c0,0,0,0,0,0l-18.5,33.2
		c-8,14.2-14.3,19.3-25.9,20.9c-6.5,0.9-12.6-1.4-15.7-6c-2.3-3.1-2.4-7.3-0.5-10.6l16-28.7l0,0l0.1-0.3l0,0c1-2,0.2-4.5-1.8-5.5
		c-0.4-0.2-0.8-0.3-1.2-0.4c-0.2,0-0.5-0.1-0.7-0.1c-1.3,0-2.6,0.6-3.4,1.7l0,0l-0.4,0.8l0,0l-15.8,28.4c-3.5,6-3.1,13.5,0.9,19.2
		c4.2,6.2,11.5,9.7,19.7,9.7c1.3,0,2.7-0.1,4-0.3c7.7-1.1,13.7-3.6,18.8-7.8c4.6-3.8,8.5-8.9,13.2-17.2l18.5-33.2
		C587.4,534.8,586.7,532.3,584.7,531.2z M583.9,535.5l-18.5,33.2c-7.7,13.7-14.8,21.5-29.9,23.7c-1.2,0.2-2.4,0.3-3.7,0.3
		c-7.2,0-13.7-3.1-17.4-8.5c-3.5-4.8-3.8-11.2-0.8-16.3l14.2-25.4l1.8-3.2l0,0c0-0.1,0.1-0.2,0.2-0.3l0,0c0.5-0.6,1.3-0.7,1.9-0.3
		c0.3,0.3,0.5,0.7,0.5,1.1c0,0.2-0.1,0.5-0.2,0.7l-1.7,3.1L516,569c-2.5,4.2-2.2,9.5,0.6,13.5c3.7,5.5,10.8,8.2,18.4,7.1
		c14.1-2,20.5-9.1,27.9-22.3l18.5-33.2c0.4-0.7,1.2-0.9,1.9-0.5C584,534,584.2,534.8,583.9,535.5L583.9,535.5L583.9,535.5z"/>
	<path id="_Compound_Path_40" class="st0" d="M398.2,517.4c-1.7-3-4.7-5.1-8.1-5.7c-1-0.2-1.9-0.3-2.9-0.3
		c-7.6,0.2-14.4,4.8-17.4,11.8c-1.6,3.5-1.5,7.5,0.3,10.8c1.7,3,4.7,5.1,8.1,5.7c8,1.5,17.1-3.6,20.3-11.5
		C400.1,524.7,399.9,520.7,398.2,517.4z M395.9,527.2c-3,6.7-11.1,11.2-17.8,9.8c-2.5-0.4-4.7-1.9-5.9-4.2c-1.2-2.4-1.2-5.5,0.2-8.6
		c2.9-6,8.8-9.8,15.4-10.1c0.8,0,1.6,0.1,2.4,0.2c2.5,0.4,4.7,1.9,5.9,4.2C397.4,521.1,397.3,524.1,395.9,527.2z"/>
	<path id="_Compound_Path_41" class="st0" d="M356.1,534.8c-1.8-1.4-4.3-1.2-5.8,0.6c0,0,0,0,0,0c-3,3.7-7.8,5.9-11.9,5.6
		c-2,0-3.8-1-5-2.6c-1-1.8-1.1-4-0.3-5.9c2-5.4,8.4-9.6,14-9.2c1.7,0,3.2,0.7,4.4,1.9c1.6,1.7,4.2,1.7,5.8,0.2s1.7-4.2,0.2-5.8
		c-2.6-2.7-6.1-4.2-9.8-4.4c-9.3-0.7-19.1,5.7-22.3,14.6c-1.7,4.3-1.3,9.2,1.1,13.2c2.5,3.8,6.7,6.1,11.2,6.3c0.5,0,0.9,0,1.4,0
		c6.8-0.2,13.2-3.3,17.5-8.6C358.1,538.8,357.8,536.2,356.1,534.8z M355,538.9c-3.6,4.8-9.2,7.6-15.2,7.8c-0.4,0-0.7,0-1.1,0
		c-6.4-0.1-11.4-5.3-11.4-11.7c0-1.4,0.3-2.7,0.8-4c2.5-7.7,11-13.5,19-13c3,0.1,5.9,1.4,8.1,3.5c0.5,0.5,0.5,1.4,0,1.9
		s-1.4,0.5-1.9,0c-1.7-1.6-4-2.6-6.4-2.7c-6.8-0.5-14.1,4.5-16.2,11c-1,2.7-0.7,5.8,0.9,8.3c1.7,2.3,4.4,3.8,7.3,3.8
		c5.5,0.2,10.6-2.3,13.9-6.7c0.4-0.6,1.3-0.8,1.9-0.3C355.3,537.3,355.5,538.2,355,538.9C355,538.8,355,538.8,355,538.9L355,538.9z"/>
	<path id="_Compound_Path_42" class="st0" d="M663.2,524c-2-1.1-4.5-0.4-5.6,1.6c0,0,0,0,0,0l-20.7,37.1c-1.1,2-0.4,4.5,1.6,5.6
		c0.6,0.3,1.3,0.5,2,0.5c1.5,0,2.9-0.8,3.6-2.1l20.7-37.1C665.9,527.6,665.2,525.1,663.2,524C663.2,524,663.2,524,663.2,524z
		 M662.4,528.3l-20.7,37.1c-0.2,0.4-0.7,0.7-1.2,0.7c-0.2,0-0.5-0.1-0.7-0.2c-0.7-0.4-0.9-1.2-0.5-1.9l20.7-37.1
		c0.3-0.7,1.1-1,1.8-0.6s1,1.1,0.6,1.8C662.5,528.2,662.4,528.2,662.4,528.3L662.4,528.3z"/>
	<path id="_Compound_Path_43" class="st0" d="M743.6,518.1c-1.4-1.8-3.9-2.2-5.8-0.8L718.2,532l-7.3-11.2l0,0l-0.1-0.2l-0.1-0.2
		l-0.1-0.1c-0.3-0.3-0.6-0.6-0.9-0.8c-0.7-0.4-1.5-0.7-2.3-0.6h-0.2l-32.4,3c-2.3,0.1-4,2.1-3.8,4.4c0.1,2.2,2,3.9,4.2,3.8h0.4
		l8.6-0.8L669,556.3c-0.9,2.1,0,4.5,2.1,5.5c1.8,0.8,4,0.2,5.1-1.5l17.9-31.8l11.4-1l7,10.7l-5.1,8.9c-1.1,2-0.4,4.5,1.5,5.6
		c2,1.1,4.5,0.4,5.6-1.5l5.9-10.4l22.4-16.9C744.6,522.5,744.9,519.9,743.6,518.1z M741.1,521.7l-22.9,17.2l-6.2,10.9
		c-0.2,0.4-0.7,0.7-1.2,0.7c-0.8,0-1.4-0.6-1.4-1.4c0-0.2,0.1-0.5,0.2-0.7l5.9-10.4l-8.8-13.5l-14.5,1.3l-18.6,33
		c-0.4,0.7-1.2,0.9-1.9,0.5c-0.7-0.4-0.9-1.2-0.5-1.9l17.7-31.4l-13.8,1.3h-0.1c-0.8,0-1.4-0.6-1.3-1.4c0-0.7,0.5-1.2,1.2-1.3
		l32.4-3h0.2h0.2h0.1l0.2,0h0.1l0.2,0.1h0.1l0.1,0.1l0.1,0.1l0.1,0.1l0,0l8.9,13.7l22-16.2c0.6-0.5,1.5-0.3,1.9,0.3
		C741.8,520.4,741.7,521.3,741.1,521.7L741.1,521.7L741.1,521.7z"/>
	<path id="_Compound_Path_44" class="st0" d="M643.2,525.7c-2-1.1-4.5-0.4-5.6,1.6l-19.2,34l-10.5-30c-0.7-2.1-3.1-3.3-5.2-2.5
		c-0.9,0.3-1.7,1-2.2,1.9l-27,48c-1.2,1.9-0.6,4.5,1.3,5.7c1.9,1.2,4.5,0.6,5.7-1.3c0.1-0.1,0.1-0.2,0.2-0.3l22.6-40l10.5,30
		c0.7,2.1,3.1,3.3,5.2,2.5c0.9-0.3,1.7-1,2.2-1.9l23.7-42C645.9,529.3,645.1,526.8,643.2,525.7z M642.3,530l-23.7,42
		c-0.4,0.7-1.2,0.9-1.9,0.5c-0.3-0.2-0.5-0.4-0.6-0.7l-12.5-35.8l-25.6,45.3c-0.4,0.7-1.2,0.9-1.9,0.5s-0.9-1.2-0.5-1.9l27-48
		c0.3-0.5,0.8-0.7,1.3-0.7c0.5,0,1,0.4,1.2,0.9l12.6,35.8l22.2-39.3c0.4-0.7,1.2-0.9,1.9-0.5C642.5,528.5,642.7,529.3,642.3,530
		L642.3,530L642.3,530z"/>
	<path id="_Compound_Path_45" class="st0" d="M574.6,463.9c-1.6-1.3-3.8-1.2-5.3,0.1l-52.1,46.4l-5.4-28.4c-0.4-2.2-2.6-3.7-4.8-3.3
		c-1.2,0.2-2.2,1-2.8,2l-28,49.2c-1.1,2-0.4,4.5,1.5,5.6c2,1.1,4.5,0.4,5.6-1.5l22.5-39.4l4.6,24.6c0.4,2.2,2.6,3.7,4.8,3.3
		c0.7-0.1,1.4-0.5,2-1l38.8-34.6l-20.4,35.9l0,0l0,0l-0.7,1.2l-0.2,0.4c-0.3,0.6-0.4,1.2-0.4,1.8c0,2,1.5,3.7,3.4,4.1
		c1.6,0.3,3.1-0.4,4-1.7l0.4-0.7l0.6-1.1l32.8-57.6C576.5,467.4,576.1,465.2,574.6,463.9z M573.2,467.8l-31.6,55.7l-1.1,2l-0.7,1.2
		l0,0l-0.1,0.2l0,0c-0.4,0.6-1.3,0.8-1.9,0.4c-0.4-0.3-0.6-0.7-0.6-1.2c0-0.2,0.1-0.5,0.2-0.7l0.8-1.4l0,0l1.1-2l27.5-48.4
		l-51.3,45.7c-0.6,0.5-1.4,0.5-1.9-0.1c-0.2-0.2-0.3-0.4-0.3-0.7l-6-31.9L481,532.6c-0.2,0.4-0.7,0.7-1.2,0.7
		c-0.2,0-0.5-0.1-0.7-0.2c-0.7-0.4-0.9-1.2-0.5-1.9c0,0,0,0,0,0l28-49.2c0.4-0.7,1.2-0.9,1.9-0.5c0.4,0.2,0.6,0.5,0.7,0.9l6.3,33.2
		l55.7-49.6c0.6-0.5,1.4-0.5,1.9,0.1C573.4,466.5,573.5,467.2,573.2,467.8L573.2,467.8z"/>
	<path id="_Path_84" class="st0" d="M542.2,527.8c-0.1,0.2-0.2,0.4-0.4,0.7L542.2,527.8z"/>
	<path id="_Path_85" class="st0" d="M527.1,537.9c0.1-0.3,0.3-0.5,0.4-0.8L527.1,537.9z"/>
</g>
</symbol><symbol id="forward-tick" viewBox="0 0 24 24">
<style type="text/css">
	.st0{stroke:#FFFFFF;stroke-miterlimit:10;}
</style>
<title>forward-tick</title>
<path class="st0" d="M7.4,21.9l-0.7-0.7l9.6-9.6L6.7,1.9l0.7-0.7l9.6,9.6c0.4,0.4,0.4,1,0,1.4L7.4,21.9z"/>
</symbol></svg>